<svg width="36" height="36" viewBox="0 0 36 36" fill="none" xmlns="http://www.w3.org/2000/svg">
<path fill-rule="evenodd" clip-rule="evenodd" d="M3.68239 26.7664L6.24207 19.712L12.1677 17.6621C12.7146 17.4729 13.1066 17.5878 13.2799 17.9848L13.3495 18.2154C13.4146 18.5912 13.2759 19.0433 12.6769 19.2659L9.02594 20.6262C8.91787 20.6669 8.83353 20.7534 8.79677 20.8633L7.38549 24.9545C7.28048 25.2646 7.59176 25.5548 7.89416 25.4301C9.08124 24.9401 10.0666 25.5255 10.9205 26.143C11.9876 26.9144 12.546 28.4578 12.4772 30.4107H10.8838C10.9591 28.7783 10.3661 28.0442 9.83073 27.7138C8.69627 27.0152 6.816 27.4717 4.3932 29.0342C4.32871 29.0756 4.279 29.1347 4.24913 29.2046L2.39558 33.482H0.833797L3.68239 26.7664ZM0.10675 34.2484H9.77482V36H0.10675V34.2484ZM10.5408 31.1768V36H20.2078V31.1768H10.5408ZM28.5661 3.48013V0H35.4681L34.1085 1.35957C33.8985 1.5696 33.899 1.91106 34.1085 2.12055L35.4681 3.48013H28.5661ZM30.6419 36H20.9738V26.5189H30.642V36H30.6419ZM29.0495 7.90928C28.8871 7.45499 28.5538 7.14876 28.3863 7.06374L27.9713 7.51986V0H27.2053V8.36173L23.2218 12.7401C23.1388 12.8324 21.3003 14.0312 21.0282 14.2161C20.9391 14.2766 15.1068 16.5648 14.4757 16.8143C14.1003 16.9627 13.9515 17.3857 14.0135 17.7557L14.0826 17.9809C14.2743 18.402 14.7368 18.5126 15.3649 18.2802L20.1016 16.5271C20.3563 16.4323 20.6263 16.6271 20.6168 16.8993L20.5227 19.7202C20.5206 19.7825 20.5037 19.8427 20.473 19.8964L14.5063 30.4108H16.1798L20.5426 23.0988C20.5487 23.0891 20.5551 23.0798 20.561 23.0707C21.3752 21.9438 23.4848 21.8451 24.4875 21.9507C24.682 21.9716 24.8297 22.1355 24.8297 22.3315V25.7529H26.5485V20.9297C26.5485 20.708 26.3252 20.2672 25.9655 19.9788C25.6358 19.7144 25.1791 19.5917 24.9338 19.5917H24.5548C24.3433 19.5917 24.1718 19.4202 24.1718 19.2087V14.4316C24.1718 14.3357 24.2078 14.2438 24.272 14.1733L27.2053 10.9581V25.7529H27.9713V10.1186L28.7682 9.24518C29.1299 8.84926 29.2239 8.39964 29.0495 7.90928ZM20.3595 11.7407C18.9685 11.7407 17.8366 10.6084 17.8366 9.21784C17.8366 7.82579 18.9685 6.69378 20.3595 6.69378C21.7505 6.69378 22.8825 7.82571 22.8825 9.21784C22.8825 10.6084 21.7505 11.7407 20.3595 11.7407ZM9.5458 17.1443C10.9368 17.1443 12.0688 16.0124 12.0688 14.6214C12.0688 13.2304 10.9368 12.0985 9.5458 12.0985C8.15405 12.0985 7.02281 13.2304 7.02281 14.6214C7.02281 16.0124 8.15405 17.1443 9.5458 17.1443Z" fill="url(#paint0_linear_841_1778)"/>
<defs>
<linearGradient id="paint0_linear_841_1778" x1="17.7874" y1="0" x2="17.7874" y2="36" gradientUnits="userSpaceOnUse">
<stop stop-color="#4443E1"/>
<stop offset="1" stop-color="#007AFF"/>
</linearGradient>
</defs>
</svg>
