<svg width="31" height="30" viewBox="0 0 31 30" fill="none" xmlns="http://www.w3.org/2000/svg">
<path fill-rule="evenodd" clip-rule="evenodd" d="M25.0251 6.0394C27.4134 6.0394 29.3499 7.97593 29.3499 10.3642C29.3499 11.1933 29.1167 11.9679 28.7118 12.6259H27.735C28.2466 12.0136 28.5548 11.225 28.5548 10.3642C28.5548 8.4148 26.9745 6.83452 25.0251 6.83452C23.0757 6.83452 21.4954 8.4148 21.4954 10.3642C21.4954 11.225 21.8036 12.0136 22.3151 12.6259H21.3384C20.9341 11.9679 20.7003 11.1933 20.7003 10.3642C20.7003 7.97534 22.6362 6.0394 25.0251 6.0394ZM10.0784 11.0656V12.4976H12.0583L13.5606 23.9521C13.6069 24.3154 13.9315 24.5814 14.3059 24.5814H28.5471C28.9895 24.5814 29.3499 24.2205 29.3499 23.7787V23.1494H14.9686L13.4692 11.7142C13.4335 11.3503 13.1124 11.065 12.7216 11.065H10.0784V11.0656ZM25.5759 25.9953C26.4231 25.9953 27.1098 26.682 27.1098 27.5292C27.1098 28.3765 26.4231 29.0632 25.5759 29.0632C24.7286 29.0632 24.0419 28.3765 24.0419 27.5292C24.0419 26.682 24.7286 25.9953 25.5759 25.9953ZM17.4548 25.9953C18.302 25.9953 18.9887 26.682 18.9887 27.5292C18.9887 28.3765 18.302 29.0632 17.4548 29.0632C16.6075 29.0632 15.9208 28.3765 15.9208 27.5292C15.9214 26.682 16.6081 25.9953 17.4548 25.9953ZM14.3897 13.3285H17.245L17.8427 17.8871H14.988L14.3897 13.3285ZM17.951 13.3285H25.079L24.4813 17.8871H18.5493L17.951 13.3285ZM25.7862 13.3285H29.3499L28.7522 17.8871H25.1886L25.7862 13.3285ZM28.6596 18.5908L28.154 22.4468H24.5897L25.0954 18.5908H28.6596ZM23.8837 22.4462H19.1469L18.6413 18.5902H24.3893L23.8837 22.4462ZM18.4403 22.4462H15.5856L15.08 18.5902H17.9346L18.4403 22.4462ZM3.60085 3.31362C6.76902 0.145459 11.9053 0.145459 15.0735 3.31362C17.5925 5.83257 18.1087 9.59663 16.621 12.6253H14.2971L14.2327 12.1343C15.6442 9.89839 15.3764 6.90659 13.4282 4.95835C11.1688 2.69897 7.50554 2.69897 5.24558 4.95835C2.98621 7.21772 2.98621 10.881 5.24558 13.141C6.96238 14.8578 9.48953 15.2697 11.5954 14.3779L11.9059 16.7457C9.08347 17.6855 5.84734 17.0322 3.60085 14.7857C0.43269 11.6181 0.43269 6.48179 3.60085 3.31362ZM11.8468 10.3625H9.37527V13.2007H11.4413L11.5005 13.6501C9.67527 14.5085 7.44519 14.2203 5.89187 12.7859V12.3916C5.89187 10.9191 7.09656 9.71499 8.56843 9.71499H10.1059C10.7692 9.71499 11.3774 9.95933 11.8468 10.3625ZM9.33718 5.04741C8.34636 5.04741 7.54363 5.85015 7.54363 6.84097C7.54363 7.83179 8.34636 8.63452 9.33718 8.63452C10.328 8.63452 11.1307 7.83179 11.1307 6.84097C11.1307 5.85073 10.328 5.04741 9.33718 5.04741ZM11.3727 27.6933C11.4647 29.5191 7.20906 29.5185 7.30164 27.6933L7.64734 20.8584H11.0276L11.3727 27.6933ZM10.9919 20.1582H7.6825L7.80496 17.7312C8.81804 17.9087 9.85574 17.9093 10.8688 17.7312L10.9919 20.1582ZM26.3182 9.59722C26.3182 9.79116 26.1606 9.94878 25.9667 9.94878C25.7727 9.94878 25.6151 9.79116 25.6151 9.59722C25.6151 9.31597 25.2594 9.18179 25.0251 9.18179C24.7907 9.18179 24.435 9.31597 24.435 9.59722C24.435 9.89487 24.7626 9.95698 25.0895 10.0191C25.7036 10.1357 26.3182 10.2523 26.3182 11.1306C26.3182 11.6779 25.8817 12.0834 25.3766 12.207V12.4121C25.3766 12.4923 25.3497 12.5662 25.3046 12.6253H26.7214C27.4333 12.091 27.8522 11.2566 27.8522 10.3636C27.8522 8.80269 26.5866 7.53706 25.0257 7.53706C23.4647 7.53706 22.1991 8.80269 22.1991 10.3636C22.1991 11.2572 22.6175 12.0904 23.33 12.6253H24.7468C24.7016 12.5662 24.6747 12.4923 24.6747 12.4121V12.207C24.1696 12.0839 23.7331 11.6779 23.7331 11.1306C23.7331 10.9367 23.8907 10.7791 24.0846 10.7791C24.2786 10.7791 24.4362 10.9367 24.4362 11.1306C24.4362 11.4119 24.7919 11.546 25.0262 11.546C25.26 11.546 25.6163 11.4119 25.6163 11.1306C25.6163 10.833 25.2887 10.7708 24.9618 10.7087C24.3477 10.5921 23.7331 10.4755 23.7331 9.59722C23.7331 9.04995 24.1696 8.64448 24.6747 8.52085V8.31577C24.6747 8.12183 24.8323 7.96421 25.0262 7.96421C25.2202 7.96421 25.3778 8.12183 25.3778 8.31577V8.52085C25.8817 8.64448 26.3182 9.04995 26.3182 9.59722Z" fill="url(#paint0_linear_841_1894)"/>
<defs>
<linearGradient id="paint0_linear_841_1894" x1="15.2873" y1="0.9375" x2="15.2873" y2="29.0632" gradientUnits="userSpaceOnUse">
<stop stop-color="#4443E1"/>
<stop offset="1" stop-color="#007AFF"/>
</linearGradient>
</defs>
</svg>
