<svg width="31" height="30" viewBox="0 0 31 30" fill="none" xmlns="http://www.w3.org/2000/svg">
<g clip-path="url(#clip0_841_3)">
<path d="M15.2874 0.937582C15.1434 0.935823 15.0009 0.967681 14.8714 1.03063C14.7418 1.09357 14.6287 1.18587 14.5411 1.30018C14.4534 1.41449 14.3937 1.54767 14.3665 1.68913C14.3393 1.83059 14.3455 1.97644 14.3846 2.11508L10.8399 5.65977C10.6833 5.61351 10.5166 5.61351 10.3599 5.65977L8.2215 3.52133C8.26049 3.38201 8.26671 3.23555 8.23966 3.09342C8.21262 2.95129 8.15305 2.81735 8.06561 2.70209C7.97817 2.58682 7.86524 2.49336 7.73566 2.42901C7.60608 2.36466 7.46337 2.33117 7.31869 2.33117C7.17401 2.33117 7.0313 2.36466 6.90172 2.42901C6.77214 2.49336 6.65921 2.58682 6.57177 2.70209C6.48433 2.81735 6.42476 2.95129 6.39772 3.09342C6.37067 3.23555 6.37689 3.38201 6.41588 3.52133L3.80869 6.12852C3.60584 6.07211 3.39001 6.08447 3.19492 6.16366C2.99984 6.24286 2.83647 6.38443 2.73033 6.56628C2.6242 6.74812 2.58128 6.95999 2.60827 7.16881C2.63526 7.37762 2.73064 7.57162 2.87952 7.7205C3.0284 7.86938 3.2224 7.96477 3.43121 7.99176C3.64003 8.01875 3.8519 7.97582 4.03374 7.86969C4.21559 7.76355 4.35716 7.60019 4.43636 7.4051C4.51556 7.21001 4.52791 6.99418 4.4715 6.79133L7.07869 4.18414C7.23535 4.2304 7.40203 4.2304 7.55869 4.18414L9.69713 6.32258C9.65814 6.46191 9.65192 6.60836 9.67897 6.75049C9.70601 6.89262 9.76558 7.02656 9.85302 7.14182C9.94046 7.25709 10.0534 7.35056 10.183 7.41491C10.3125 7.47925 10.4553 7.51274 10.5999 7.51274C10.7446 7.51274 10.8873 7.47925 11.0169 7.41491C11.1465 7.35056 11.2594 7.25709 11.3469 7.14182C11.4343 7.02656 11.4939 6.89262 11.5209 6.75049C11.548 6.60836 11.5417 6.46191 11.5028 6.32258L15.0474 2.77789C15.1769 2.81407 15.3126 2.822 15.4453 2.80114C15.5781 2.78027 15.7048 2.73111 15.8169 2.65698C15.929 2.58284 16.0239 2.48548 16.0951 2.37148C16.1662 2.25747 16.2121 2.1295 16.2294 1.99624C16.2468 1.86297 16.2353 1.72752 16.1958 1.59908C16.1562 1.47064 16.0895 1.3522 16.0002 1.2518C15.9108 1.1514 15.801 1.07138 15.678 1.01716C15.555 0.96295 15.4218 0.935809 15.2874 0.937582Z" fill="url(#paint0_linear_841_3)"/>
<path d="M24.1937 11.25V19.2188H27.0062V3.28125H25.5999C25.4756 3.28125 25.3564 3.23186 25.2685 3.14396C25.1806 3.05605 25.1312 2.93682 25.1312 2.8125V1.40625H20.4437V2.8125C20.4437 2.93682 20.3943 3.05605 20.3064 3.14396C20.2185 3.23186 20.0992 3.28125 19.9749 3.28125H18.5687V10.7812H23.7249C23.8492 10.7812 23.9685 10.8306 24.0564 10.9185C24.1443 11.0065 24.1937 11.1257 24.1937 11.25Z" fill="url(#paint1_linear_841_3)"/>
<path d="M27.9437 28.5938V20.1562H21.8499V28.5938H20.9124V19.6875C20.9124 19.5632 20.9618 19.444 21.0497 19.356C21.1376 19.2681 21.2568 19.2188 21.3812 19.2188H23.2562V11.7188H14.8187V20.1562H16.6937C16.818 20.1562 16.9372 20.2056 17.0251 20.2935C17.113 20.3815 17.1624 20.5007 17.1624 20.625V28.5938H16.2249V21.0938H8.72491V28.5938H7.78741V20.625C7.78741 20.5007 7.8368 20.3815 7.92471 20.2935C8.01262 20.2056 8.13184 20.1562 8.25616 20.1562H12.0062V11.7188H2.63116V28.5938H0.756165V29.5312H29.8187V28.5938H27.9437ZM22.7874 22.0312H27.0062V22.9688H22.7874V22.0312ZM22.7874 23.9062H27.0062V24.8438H22.7874V23.9062ZM22.7874 25.7812H27.0062V26.7188H22.7874V25.7812ZM8.25616 13.125H10.1312V15H8.25616V13.125ZM8.25616 16.875H10.1312V18.75H8.25616V16.875ZM4.50616 13.125H6.38116V15H4.50616V13.125ZM4.50616 16.875H6.38116V18.75H4.50616V16.875ZM4.50616 20.625H6.38116V22.5H4.50616V20.625ZM4.50616 24.375H6.38116V26.25H4.50616V24.375Z" fill="url(#paint2_linear_841_3)"/>
</g>
<defs>
<linearGradient id="paint0_linear_841_3" x1="9.41885" y1="0.9375" x2="9.41885" y2="7.99962" gradientUnits="userSpaceOnUse">
<stop stop-color="#4443E1"/>
<stop offset="1" stop-color="#007AFF"/>
</linearGradient>
<linearGradient id="paint1_linear_841_3" x1="22.7874" y1="1.40625" x2="22.7874" y2="19.2188" gradientUnits="userSpaceOnUse">
<stop stop-color="#4443E1"/>
<stop offset="1" stop-color="#007AFF"/>
</linearGradient>
<linearGradient id="paint2_linear_841_3" x1="15.2874" y1="11.7187" x2="15.2874" y2="29.5312" gradientUnits="userSpaceOnUse">
<stop stop-color="#4443E1"/>
<stop offset="1" stop-color="#007AFF"/>
</linearGradient>
<clipPath id="clip0_841_3">
<rect width="30" height="30" fill="white" transform="translate(0.287415)"/>
</clipPath>
</defs>
</svg>
