<svg width="31" height="30" viewBox="0 0 31 30" fill="none" xmlns="http://www.w3.org/2000/svg">
<g clip-path="url(#clip0_841_2810)">
<path d="M7.59439 27.5249L8.21318 27.2061L9.01548 28.7634L8.39669 29.0822L7.59439 27.5249Z" fill="url(#paint0_linear_841_2810)"/>
<path d="M2.59698 28.7539L3.39928 27.1966L4.01808 27.5154L3.21578 29.0727L2.59698 28.7539Z" fill="url(#paint1_linear_841_2810)"/>
<path d="M5.44824 29.9722L5.49204 28.2204L6.18809 28.2378L6.1443 29.9896L5.44824 29.9722Z" fill="url(#paint2_linear_841_2810)"/>
<path d="M22.3355 1.24023L22.9543 0.921441L23.7566 2.47874L23.1378 2.79753L22.3355 1.24023Z" fill="url(#paint3_linear_841_2810)"/>
<path d="M27.3385 2.47461L28.1408 0.917312L28.7596 1.23611L27.9573 2.7934L27.3385 2.47461Z" fill="url(#paint4_linear_841_2810)"/>
<path d="M25.1716 1.74561L25.2154 -0.00613535L25.9114 0.011266L25.8676 1.76301L25.1716 1.74561Z" fill="url(#paint5_linear_841_2810)"/>
<path d="M27.2538 25.1102C27.3002 25.1102 27.3466 25.0986 27.3872 25.0696L27.364 23.3179L19.5508 23.3237L19.574 25.1276C19.6146 25.1566 19.661 25.1682 19.7132 25.1682L27.2538 25.1102Z" fill="url(#paint6_linear_841_2810)"/>
<path d="M18.8431 25.8933L18.9011 29.7274H28.1993L28.1413 25.8179L18.8431 25.8933Z" fill="url(#paint7_linear_841_2810)"/>
<path d="M28.06 16.3923L27.0392 13.2079C26.9812 13.1093 26.871 13.0513 26.7549 13.0513C26.4939 13.0513 26.2445 13.1847 26.0937 13.3993C25.8849 13.7647 25.8095 14.194 25.8733 14.6116C25.9603 15.1452 26.1807 16.5025 26.2851 17.129C26.3199 17.3262 26.3373 17.448 26.3373 17.4538L26.3837 17.7264L26.1285 17.8309C25.9313 17.9237 25.7515 18.0397 25.5833 18.1731C25.3512 18.3587 25.1598 18.5791 25.009 18.8343C24.864 19.0896 24.7248 19.3564 24.5972 19.629L23.9649 19.3332C24.0635 19.1244 24.1679 18.9155 24.2781 18.7183L19.2549 20.8181C19.2897 21.4735 19.5508 22.0942 20.0032 22.5698C20.0206 22.5872 20.038 22.6104 20.0612 22.6278L26.9812 22.622C27.0044 22.5872 27.0276 22.5466 27.0508 22.5118C27.2538 22.1986 27.4278 21.9144 27.4278 21.9086L27.4336 21.897C27.4916 21.8042 27.538 21.7056 27.567 21.6012L28.5473 17.9585L28.2573 17.0478L28.06 16.3923Z" fill="url(#paint8_linear_841_2810)"/>
<path d="M29.3825 15.0346L24.8582 4.21093L20.6122 5.98587C20.3454 6.09608 20.0322 5.96847 19.922 5.70165C19.8872 5.61464 19.8756 5.51603 19.8872 5.42322C19.9394 5.0694 20.0264 4.19353 19.7596 3.68308C19.2781 2.78401 18.1586 2.44759 17.2596 2.92902C16.3605 3.41046 16.0241 4.52995 16.5055 5.42902C16.7375 5.85826 17.1262 6.17728 17.5902 6.3223C17.7874 6.3803 17.9208 6.55431 17.9324 6.75733C17.944 6.96035 17.8222 7.15176 17.6366 7.23297L13.0484 9.12392C13.1122 9.19933 13.1644 9.28053 13.205 9.37334C13.4081 9.82578 13.6865 10.4522 13.9765 11.0961C14.1331 11.4325 14.2897 11.7805 14.4289 12.1112C14.5798 12.4476 14.719 12.7608 14.8408 13.0276C15.4846 11.7805 17.0159 11.2933 18.263 11.9371C19.3361 12.494 19.8756 13.7295 19.5392 14.8896V14.8954C19.5392 14.907 19.5334 14.9186 19.5334 14.9302C19.4695 15.1796 19.3709 15.4174 19.2375 15.6436C19.2143 15.6842 19.1911 15.719 19.1621 15.7597C18.9301 16.0961 18.6227 16.3745 18.263 16.5659C17.7642 16.8269 17.103 16.8617 16.5345 16.8153L18.0832 20.2724C18.1238 20.3594 18.147 20.4464 18.1644 20.5334L18.5647 20.3652L19.2549 20.0752L25.2352 17.5752C25.357 17.4824 25.4846 17.3954 25.618 17.32C25.5194 16.7341 25.2816 15.284 25.1946 14.7214C25.1076 14.1413 25.212 13.5497 25.5078 13.0392L25.5136 13.0276C25.7979 12.5984 26.2793 12.349 26.7897 12.3606C27.161 12.3664 27.5032 12.581 27.6714 12.9116L27.683 12.9406L28.7039 16.1251L28.9881 16.0091C29.3651 15.8467 29.5392 15.4116 29.3825 15.0346Z" fill="url(#paint9_linear_841_2810)"/>
<path d="M11.8478 4.66375L11.7956 0.69043H2.49741L2.54961 4.73915L11.8478 4.66375Z" fill="url(#paint10_linear_841_2810)"/>
<path d="M3.43706 5.44681C3.39066 5.44681 3.34425 5.45841 3.30365 5.48741L3.32685 7.23915V7.30876C3.36745 7.33776 3.41386 7.35516 3.46606 7.34936L10.9893 7.29136L10.9951 7.30296H11.0067C11.0531 7.30296 11.0995 7.29136 11.1401 7.26236L11.1111 5.42941C11.0705 5.40041 11.0241 5.38301 10.9719 5.38881L3.43706 5.44681Z" fill="url(#paint11_linear_841_2810)"/>
<path d="M15.7283 16.711C15.6528 16.5428 15.6702 16.3456 15.7805 16.1948C15.7805 16.189 15.7863 16.189 15.7863 16.1832C15.8965 16.0324 16.0879 15.9512 16.2735 15.9744C16.6273 16.015 17.5032 16.0846 18.0078 15.8004C18.4197 15.5683 18.7271 15.1855 18.8605 14.7331C19.0577 13.892 18.6401 13.0277 17.857 12.6507C16.9405 12.2099 15.8385 12.5985 15.3976 13.515C15.357 13.5962 15.3222 13.6832 15.299 13.7702C15.2178 14.0254 14.951 14.1704 14.69 14.0892C14.5508 14.0486 14.4405 13.9442 14.3825 13.8108C14.2375 13.4686 14.0171 12.9349 13.7735 12.3549C13.7735 12.3549 13.7735 12.3491 13.7677 12.3491C13.3501 11.4152 12.8628 10.3305 12.5612 9.64606C12.5264 9.57066 12.4684 9.51265 12.393 9.48365C12.3582 9.47205 12.3234 9.46045 12.2828 9.46045C12.2422 9.46045 12.1958 9.47205 12.161 9.48945L12.0972 9.51845L11.4185 9.82008L6.20969 12.1519C5.91967 12.5985 5.53104 12.9697 5.067 13.2308C5.16561 13.8166 5.40343 15.2667 5.49043 15.8294C5.58324 16.4094 5.47303 17.0011 5.17721 17.5115L5.17141 17.5231C4.89879 17.9349 4.44055 18.1843 3.94751 18.1959C3.93011 18.1959 3.91271 18.1959 3.88951 18.1959C3.51828 18.1901 3.17605 17.9755 3.00784 17.6449L2.99623 17.6159L1.87094 14.095L1.56352 14.2342C1.19229 14.4024 1.02408 14.8433 1.19229 15.2145L6.06468 26.102L9.99739 24.3386C9.51596 23.9674 8.98811 23.457 8.7967 22.8827C8.35006 21.5544 9.06352 20.1101 10.3918 19.6635C11.7201 19.2168 13.1644 19.9303 13.6111 21.2586C13.7677 21.7226 13.7851 22.2215 13.6633 22.6971C14.6552 22.2505 16.2677 21.5312 17.2248 21.102C17.4394 21.0034 17.538 20.754 17.4394 20.5393L15.7283 16.711Z" fill="url(#paint12_linear_841_2810)"/>
<path d="M2.52059 13.8168L3.65168 17.3493C3.70969 17.4479 3.8199 17.5059 3.9359 17.5059C4.19693 17.5059 4.44635 17.3725 4.59136 17.1579C4.80017 16.7925 4.87558 16.3632 4.80597 15.9456C4.69577 15.2437 4.34194 13.1266 4.34194 13.1034L4.32454 13.0106L4.29553 12.8308L4.55075 12.7263C4.55655 12.7263 5.27001 12.4189 5.66444 11.7229C5.68184 11.6881 5.69925 11.6591 5.72245 11.6243L6.66212 11.2066L11.3141 9.12425C11.1923 8.70082 10.9719 8.31219 10.6702 7.99316L3.62268 8.05117C3.41966 8.36439 3.24565 8.64862 3.24565 8.65442L3.23985 8.66602C3.18184 8.75882 3.13544 8.85743 3.10644 8.96184L2.12616 12.6045L2.30597 13.1614L2.52059 13.8168Z" fill="url(#paint13_linear_841_2810)"/>
</g>
<defs>
<linearGradient id="paint0_linear_841_2810" x1="7.90379" y1="27.3655" x2="8.70608" y2="28.9228" gradientUnits="userSpaceOnUse">
<stop stop-color="#4443E1"/>
<stop offset="1" stop-color="#007AFF"/>
</linearGradient>
<linearGradient id="paint1_linear_841_2810" x1="2.99813" y1="27.9753" x2="3.61693" y2="28.2941" gradientUnits="userSpaceOnUse">
<stop stop-color="#4443E1"/>
<stop offset="1" stop-color="#007AFF"/>
</linearGradient>
<linearGradient id="paint2_linear_841_2810" x1="5.47014" y1="29.0963" x2="6.16619" y2="29.1137" gradientUnits="userSpaceOnUse">
<stop stop-color="#4443E1"/>
<stop offset="1" stop-color="#007AFF"/>
</linearGradient>
<linearGradient id="paint3_linear_841_2810" x1="22.6449" y1="1.08084" x2="23.4472" y2="2.63813" gradientUnits="userSpaceOnUse">
<stop stop-color="#4443E1"/>
<stop offset="1" stop-color="#007AFF"/>
</linearGradient>
<linearGradient id="paint4_linear_841_2810" x1="27.7396" y1="1.69596" x2="28.3584" y2="2.01475" gradientUnits="userSpaceOnUse">
<stop stop-color="#4443E1"/>
<stop offset="1" stop-color="#007AFF"/>
</linearGradient>
<linearGradient id="paint5_linear_841_2810" x1="25.1935" y1="0.869735" x2="25.8895" y2="0.887136" gradientUnits="userSpaceOnUse">
<stop stop-color="#4443E1"/>
<stop offset="1" stop-color="#007AFF"/>
</linearGradient>
<linearGradient id="paint6_linear_841_2810" x1="23.469" y1="23.3179" x2="23.469" y2="25.1682" gradientUnits="userSpaceOnUse">
<stop stop-color="#4443E1"/>
<stop offset="1" stop-color="#007AFF"/>
</linearGradient>
<linearGradient id="paint7_linear_841_2810" x1="23.5212" y1="25.8179" x2="23.5212" y2="29.7274" gradientUnits="userSpaceOnUse">
<stop stop-color="#4443E1"/>
<stop offset="1" stop-color="#007AFF"/>
</linearGradient>
<linearGradient id="paint8_linear_841_2810" x1="23.9011" y1="13.0513" x2="23.9011" y2="22.6278" gradientUnits="userSpaceOnUse">
<stop stop-color="#4443E1"/>
<stop offset="1" stop-color="#007AFF"/>
</linearGradient>
<linearGradient id="paint9_linear_841_2810" x1="21.2442" y1="2.70947" x2="21.2442" y2="20.5334" gradientUnits="userSpaceOnUse">
<stop stop-color="#4443E1"/>
<stop offset="1" stop-color="#007AFF"/>
</linearGradient>
<linearGradient id="paint10_linear_841_2810" x1="7.17258" y1="0.69043" x2="7.17258" y2="4.73915" gradientUnits="userSpaceOnUse">
<stop stop-color="#4443E1"/>
<stop offset="1" stop-color="#007AFF"/>
</linearGradient>
<linearGradient id="paint11_linear_841_2810" x1="7.22186" y1="5.3877" x2="7.22186" y2="7.35047" gradientUnits="userSpaceOnUse">
<stop stop-color="#4443E1"/>
<stop offset="1" stop-color="#007AFF"/>
</linearGradient>
<linearGradient id="paint12_linear_841_2810" x1="10.018" y1="9.46045" x2="10.018" y2="26.102" gradientUnits="userSpaceOnUse">
<stop stop-color="#4443E1"/>
<stop offset="1" stop-color="#007AFF"/>
</linearGradient>
<linearGradient id="paint13_linear_841_2810" x1="6.72013" y1="7.99316" x2="6.72013" y2="17.5059" gradientUnits="userSpaceOnUse">
<stop stop-color="#4443E1"/>
<stop offset="1" stop-color="#007AFF"/>
</linearGradient>
<clipPath id="clip0_841_2810">
<rect width="30" height="30" fill="white" transform="translate(0.287415)"/>
</clipPath>
</defs>
</svg>
