<svg width="31" height="30" viewBox="0 0 31 30" fill="none" xmlns="http://www.w3.org/2000/svg">
<g clip-path="url(#clip0_841_1792)">
<path d="M19.2011 13.4111C19.2557 12.9911 19.2449 12.5652 19.1686 12.1485C19.1367 11.974 19.1944 11.7952 19.3224 11.6725L19.6587 11.3499L19.3539 10.6534L18.8906 10.6874C18.7099 10.7005 18.5352 10.6204 18.4275 10.4748C18.1793 10.1388 17.8745 9.84863 17.5266 9.61723C17.3754 9.51621 17.2865 9.34434 17.2919 9.16241L17.3055 8.70012L16.5997 8.42749L16.3018 8.77305C16.1859 8.9073 16.0101 8.97456 15.8341 8.95162C15.4141 8.89674 14.9879 8.90782 14.5712 8.98409C14.3968 9.0163 14.2179 8.95832 14.0953 8.83025L13.7727 8.49397L13.0759 8.79882L13.1099 9.26188C13.1233 9.44252 13.0431 9.61723 12.8976 9.72494C12.5615 9.97309 12.2711 10.2779 12.0395 10.6258C11.9382 10.7766 11.7666 10.8652 11.5849 10.8606L11.1224 10.8469L10.85 11.553L11.1955 11.8509C11.3298 11.9668 11.397 12.1426 11.3741 12.3186C11.3195 12.7386 11.3303 13.1645 11.4066 13.5812C11.4385 13.7557 11.3808 13.9342 11.2527 14.0572L10.9165 14.3795L11.2213 15.0766L11.6846 15.0426C11.8653 15.0294 12.0397 15.1098 12.1477 15.2551C12.3958 15.5909 12.7007 15.8811 13.0486 16.1127C13.1998 16.2135 13.2885 16.3854 13.2833 16.5673L13.2697 17.0296L13.9755 17.3022L14.2733 16.9566C14.3893 16.8224 14.565 16.7551 14.741 16.7781C15.1611 16.8327 15.587 16.8216 16.0037 16.7451C16.1782 16.7134 16.3567 16.7711 16.4796 16.8989L16.8023 17.2355L17.4991 16.9304L17.465 16.4673C17.4516 16.2867 17.532 16.112 17.6774 16.0042C18.0134 15.7561 18.3036 15.4512 18.535 15.1034C18.6357 14.9516 18.8076 14.8627 18.9898 14.8686L19.4521 14.8823L19.7247 14.1765L19.3791 13.8783C19.2451 13.7624 19.1781 13.5869 19.2011 13.4111ZM15.2876 15.6976C13.7229 15.6976 12.4546 14.4293 12.4546 12.8646C12.4546 11.3002 13.7229 10.0318 15.2876 10.0318C16.8523 10.0318 18.1203 11.3002 18.1203 12.8646C18.1185 14.4285 16.8512 15.6958 15.2876 15.6976Z" fill="url(#paint0_linear_841_1792)"/>
<path d="M15.2875 11.0874C14.306 11.0874 13.51 11.8831 13.51 12.8647C13.51 13.8462 14.3057 14.6422 15.2875 14.6422C16.2691 14.6422 17.0648 13.8465 17.0648 12.8647C17.0638 11.8837 16.2685 11.0884 15.2875 11.0874Z" fill="url(#paint1_linear_841_1792)"/>
<path d="M28.6542 10.9055C27.6204 9.86523 26.2132 9.28234 24.7467 9.28724C24.6024 9.28724 24.4537 9.28879 24.3024 9.29652C24.0393 4.55689 20.1217 0.846981 15.3746 0.842085C13.4077 0.8359 11.4946 1.48527 9.93745 2.68712C8.50626 3.7895 7.43892 5.29594 6.8733 7.01161C3.07217 7.63367 0.282973 10.9205 0.287611 14.7721C0.287611 14.7788 0.287611 14.7847 0.287869 14.7912V14.8095C0.287611 14.8177 0.287354 14.8136 0.287354 14.8218C0.29225 18.3297 3.1384 21.1702 6.64628 21.1684H12.319V22.4877H10.0635C9.92663 22.4844 9.79418 22.537 9.69703 22.6333C9.59988 22.7297 9.54602 22.8616 9.54834 22.9985V25.2246C9.23912 25.3061 8.9585 25.4712 8.73689 25.7016C8.19137 26.2366 8.02233 27.0475 8.30887 27.7556C8.59516 28.4637 9.28035 28.9294 10.0444 28.9348C10.8082 28.9399 11.4998 28.4841 11.7961 27.7798C12.0922 27.0758 11.9345 26.2626 11.3965 25.7202H11.4027C11.1749 25.4563 10.8677 25.312 10.6038 25.2246V23.5432H12.8282C13.1266 23.5368 13.367 23.2969 13.3745 22.9985V21.1684H14.7598V25.5295C13.86 25.792 13.2902 26.6764 13.4229 27.6044C13.5554 28.532 14.3501 29.2213 15.2875 29.2213C16.2247 29.2213 17.0194 28.532 17.1522 27.6044C17.2849 26.6764 16.7151 25.792 15.8153 25.5295V21.1684H17.2006V22.9985C17.2078 23.2969 17.4485 23.5368 17.7469 23.5432H19.9712V25.2246C19.7074 25.312 19.4002 25.4563 19.1724 25.7202H19.1755C18.4473 26.46 18.456 27.65 19.1953 28.3787C19.9347 29.1077 21.1246 29.0997 21.8539 28.3609C22.5834 27.6221 22.5762 26.4321 21.8382 25.7024C21.6166 25.4715 21.3359 25.3063 21.0267 25.2246V22.9985C21.0288 22.8616 20.9752 22.7297 20.878 22.6333C20.7806 22.537 20.6484 22.4844 20.5116 22.4877H18.2561V21.1684H23.9288C27.4364 21.1702 30.2823 18.33 30.2875 14.8223C30.2875 14.7821 30.282 14.7422 30.271 14.7035C30.2439 13.276 29.6644 11.9146 28.6542 10.9055ZM20.8438 14.2098L20.3026 15.6109C20.2217 15.8193 20.0184 15.9544 19.7947 15.9484L19.2402 15.9322C19.0338 16.2028 18.7985 16.4499 18.538 16.6689L18.579 17.2258C18.5955 17.4489 18.4694 17.6582 18.2643 17.7479L16.8878 18.3501C16.685 18.4387 16.4487 18.3916 16.2953 18.2318L15.9075 17.8277C15.5712 17.87 15.2314 17.8788 14.8933 17.854L14.532 18.273C14.3861 18.4418 14.1501 18.5008 13.9422 18.4207L12.5411 17.8798C12.3324 17.7991 12.1971 17.5956 12.2038 17.3716L12.22 16.8171C11.9495 16.6109 11.7023 16.3754 11.4831 16.1152L10.9265 16.1561C10.703 16.1729 10.4938 16.0466 10.4041 15.8415L9.80191 14.4649C9.71326 14.2621 9.76042 14.0256 9.92019 13.8725L10.3242 13.4847C10.282 13.1484 10.2732 12.8085 10.298 12.4704L9.87895 12.1089C9.71017 11.9633 9.65116 11.7273 9.7313 11.5193L10.2722 10.1183C10.3526 9.90929 10.5564 9.77375 10.7803 9.78071L11.3349 9.79694C11.541 9.52637 11.7766 9.27925 12.0368 9.05996L11.9958 8.50336C11.9796 8.2802 12.1056 8.07096 12.3107 7.98128L13.6873 7.37907C13.8898 7.29017 14.1264 7.33758 14.2797 7.49709L14.6673 7.9014C15.0038 7.85914 15.3437 7.85038 15.6821 7.87512L16.0433 7.45612C16.1892 7.28734 16.4252 7.22833 16.6332 7.30847L18.0342 7.84961C18.2432 7.93001 18.3785 8.13358 18.3718 8.35751L18.355 8.91153C18.6256 9.11794 18.8727 9.35347 19.092 9.61373L19.6486 9.57276C19.872 9.55626 20.0815 9.68253 20.1709 9.88791L20.7732 11.2645C20.8621 11.467 20.8146 11.7036 20.6551 11.8569L20.2508 12.2444C20.2931 12.581 20.3019 12.9209 20.2771 13.259L20.6959 13.6205C20.8646 13.7661 20.9237 14.0019 20.8435 14.2098H20.8438Z" fill="url(#paint2_linear_841_1792)"/>
</g>
<defs>
<linearGradient id="paint0_linear_841_1792" x1="15.2873" y1="8.42749" x2="15.2873" y2="17.3022" gradientUnits="userSpaceOnUse">
<stop stop-color="#4443E1"/>
<stop offset="1" stop-color="#007AFF"/>
</linearGradient>
<linearGradient id="paint1_linear_841_1792" x1="15.2874" y1="11.0874" x2="15.2874" y2="14.6422" gradientUnits="userSpaceOnUse">
<stop stop-color="#4443E1"/>
<stop offset="1" stop-color="#007AFF"/>
</linearGradient>
<linearGradient id="paint2_linear_841_1792" x1="15.2874" y1="0.842041" x2="15.2874" y2="29.2213" gradientUnits="userSpaceOnUse">
<stop stop-color="#4443E1"/>
<stop offset="1" stop-color="#007AFF"/>
</linearGradient>
<clipPath id="clip0_841_1792">
<rect width="30" height="30" fill="white" transform="translate(0.287354)"/>
</clipPath>
</defs>
</svg>
