<svg width="31" height="30" viewBox="0 0 31 30" fill="none" xmlns="http://www.w3.org/2000/svg">
<path d="M7.91856 8.10156L5.31948 8.30236C4.59626 8.35826 3.95215 8.7373 3.55219 9.34228L0.554732 13.8758C0.251394 14.3345 0.203172 14.9087 0.425651 15.4117C0.648188 15.9146 1.10551 16.2651 1.64896 16.3493L4.02873 16.7179C4.58542 13.7636 5.91807 10.8166 7.91856 8.10156Z" fill="url(#paint0_linear_841_1902)"/>
<path d="M13.5695 26.2587L13.9381 28.6385C14.0223 29.1819 14.3728 29.6393 14.8757 29.8617C15.0849 29.9543 15.3064 30 15.5268 30C15.8363 30 16.1437 29.9099 16.4117 29.7327L20.9453 26.7353C21.5502 26.3353 21.9293 25.6911 21.9851 24.968L22.1859 22.3689C19.4708 24.3694 16.5238 25.7021 13.5695 26.2587Z" fill="url(#paint1_linear_841_1902)"/>
<path d="M12.6745 24.6092C12.7571 24.6092 12.8402 24.6024 12.9231 24.5885C14.1608 24.3816 15.3538 24.033 16.4918 23.5766L6.71079 13.7957C6.25446 14.9336 5.90583 16.1266 5.69888 17.3643C5.61732 17.8522 5.78097 18.3493 6.13071 18.6991L11.5883 24.1567C11.8787 24.447 12.2706 24.6092 12.6745 24.6092Z" fill="url(#paint2_linear_841_1902)"/>
<path d="M27.8953 13.3009C30.2888 8.67351 30.3774 3.78354 30.2523 1.4902C30.2095 0.704409 29.583 0.0779291 28.7972 0.0350974C28.4238 0.0147069 27.9812 0 27.4824 0C24.918 0 20.8604 0.388415 16.9865 2.39213C13.9079 3.98452 9.87102 7.4908 7.48932 12.0987C7.51744 12.1207 7.54492 12.144 7.57082 12.1699L18.1176 22.7167C18.1435 22.7426 18.1668 22.77 18.1887 22.7981C22.7966 20.4164 26.3029 16.3795 27.8953 13.3009ZM17.7305 6.34214C19.4439 4.62881 22.2318 4.62864 23.9452 6.34214C24.7753 7.17211 25.2324 8.27572 25.2324 9.44952C25.2324 10.6233 24.7753 11.7269 23.9452 12.5569C23.0887 13.4135 21.9631 13.8418 20.8379 13.842C19.7124 13.842 18.5874 13.4137 17.7305 12.5569C16.9005 11.7269 16.4434 10.6233 16.4434 9.44952C16.4434 8.27572 16.9005 7.17211 17.7305 6.34214Z" fill="url(#paint3_linear_841_1902)"/>
<path d="M18.9735 11.3138C20.0015 12.3419 21.6743 12.3419 22.7024 11.3138C23.2004 10.8158 23.4746 10.1537 23.4746 9.4494C23.4746 8.7451 23.2004 8.08299 22.7024 7.585C22.1884 7.07096 21.5132 6.81396 20.8379 6.81396C20.1627 6.81396 19.4875 7.07096 18.9735 7.585C18.4755 8.08299 18.2012 8.7451 18.2012 9.4494C18.2012 10.1537 18.4755 10.8159 18.9735 11.3138Z" fill="url(#paint4_linear_841_1902)"/>
<path d="M1.1842 24.7228C1.40914 24.7228 1.63409 24.637 1.80565 24.4654L4.67516 21.5958C5.0184 21.2526 5.0184 20.6961 4.67516 20.3529C4.33198 20.0096 3.77545 20.0096 3.43221 20.3529L0.562699 23.2224C0.219457 23.5656 0.219457 24.1221 0.562699 24.4654C0.73432 24.637 0.959262 24.7228 1.1842 24.7228Z" fill="url(#paint5_linear_841_1902)"/>
<path d="M7.3049 22.9825C6.96172 22.6393 6.4052 22.6393 6.06196 22.9825L0.54506 28.4994C0.201818 28.8427 0.201818 29.3991 0.54506 29.7424C0.716681 29.914 0.941622 29.9998 1.16656 29.9998C1.39151 29.9998 1.61645 29.914 1.78801 29.7423L7.30485 24.2255C7.64815 23.8822 7.64815 23.3258 7.3049 22.9825Z" fill="url(#paint6_linear_841_1902)"/>
<path d="M8.69161 25.6124L5.82216 28.4819C5.47892 28.8252 5.47892 29.3816 5.82216 29.7249C5.99378 29.8965 6.21872 29.9823 6.4436 29.9823C6.66849 29.9823 6.89349 29.8966 7.06505 29.7249L9.93456 26.8554C10.2778 26.5121 10.2778 25.9557 9.93456 25.6124C9.59138 25.2692 9.03486 25.2692 8.69161 25.6124Z" fill="url(#paint7_linear_841_1902)"/>
<defs>
<linearGradient id="paint0_linear_841_1902" x1="4.10299" y1="8.10156" x2="4.10299" y2="16.7179" gradientUnits="userSpaceOnUse">
<stop stop-color="#4443E1"/>
<stop offset="1" stop-color="#007AFF"/>
</linearGradient>
<linearGradient id="paint1_linear_841_1902" x1="17.8777" y1="22.3689" x2="17.8777" y2="30" gradientUnits="userSpaceOnUse">
<stop stop-color="#4443E1"/>
<stop offset="1" stop-color="#007AFF"/>
</linearGradient>
<linearGradient id="paint2_linear_841_1902" x1="11.085" y1="13.7957" x2="11.085" y2="24.6092" gradientUnits="userSpaceOnUse">
<stop stop-color="#4443E1"/>
<stop offset="1" stop-color="#007AFF"/>
</linearGradient>
<linearGradient id="paint3_linear_841_1902" x1="18.8884" y1="0" x2="18.8884" y2="22.7981" gradientUnits="userSpaceOnUse">
<stop stop-color="#4443E1"/>
<stop offset="1" stop-color="#007AFF"/>
</linearGradient>
<linearGradient id="paint4_linear_841_1902" x1="20.8379" y1="6.81396" x2="20.8379" y2="12.0849" gradientUnits="userSpaceOnUse">
<stop stop-color="#4443E1"/>
<stop offset="1" stop-color="#007AFF"/>
</linearGradient>
<linearGradient id="paint5_linear_841_1902" x1="2.61893" y1="20.0955" x2="2.61893" y2="24.7228" gradientUnits="userSpaceOnUse">
<stop stop-color="#4443E1"/>
<stop offset="1" stop-color="#007AFF"/>
</linearGradient>
<linearGradient id="paint6_linear_841_1902" x1="3.92498" y1="22.7251" x2="3.92498" y2="29.9998" gradientUnits="userSpaceOnUse">
<stop stop-color="#4443E1"/>
<stop offset="1" stop-color="#007AFF"/>
</linearGradient>
<linearGradient id="paint7_linear_841_1902" x1="7.87836" y1="25.355" x2="7.87836" y2="29.9823" gradientUnits="userSpaceOnUse">
<stop stop-color="#4443E1"/>
<stop offset="1" stop-color="#007AFF"/>
</linearGradient>
</defs>
</svg>
