<svg width="203" height="48" viewBox="0 0 203 48" fill="none" xmlns="http://www.w3.org/2000/svg">
<path d="M11.568 47.9804C10.1716 47.7872 8.75031 47.7311 7.40694 47.2356C3.87863 45.9362 1.68122 43.4527 0.796028 39.8069C0.527976 38.7007 0.459405 37.5664 0.422002 36.4322C0.340963 34.011 0.390834 31.5898 0.387717 29.1686C0.378366 23.7685 0.381483 18.3683 0.387717 12.9682C0.387717 11.6064 0.459405 10.2478 0.646418 8.89545C1.20746 4.84767 4.23083 1.46673 8.19863 0.47893C9.27083 0.210948 10.3649 0.101885 11.4651 0.0395638C12.1259 0.00217094 12.7836 0.00217094 13.4412 0.00217094C21.0402 0.00217094 28.6391 -0.00717728 36.2381 0.00840309C38.0116 0.0115192 39.782 0.126814 41.462 0.753145C45.0246 2.08682 47.2002 4.63889 48.023 8.34079C48.2942 9.55294 48.3659 10.79 48.369 12.0271C48.3721 20.0416 48.3815 28.0562 48.3659 36.0738C48.3628 37.8936 48.2007 39.7041 47.4901 41.4086C46.0625 44.8238 43.5036 46.8773 39.888 47.6283C39.0402 47.8027 38.183 47.8806 37.3197 47.9118C36.8116 47.9336 36.3004 47.971 35.7924 47.971C28.1872 47.9741 20.5851 47.971 12.9799 47.9741C12.5093 47.9741 12.0417 48.0271 11.5711 47.9835L11.568 47.9804ZM19.3882 10.2946C22.7981 15.8879 26.1706 21.4189 29.5617 26.978C32.956 21.4127 36.3316 15.8755 39.7103 10.332C39.5732 10.2665 39.4578 10.2946 39.3488 10.2946C37.3695 10.2946 35.3903 10.3008 33.4111 10.2852C33.1462 10.2852 33.009 10.3725 32.8781 10.5906C31.7841 12.4041 30.6776 14.2115 29.5649 16.0406C29.4714 15.891 29.3903 15.757 29.3062 15.623C28.2714 13.931 27.2365 12.2421 26.2111 10.5438C26.0958 10.3538 25.9773 10.2852 25.756 10.2852C23.7425 10.2946 21.729 10.2914 19.7155 10.2914C19.6251 10.2914 19.5378 10.2914 19.3851 10.2914L19.3882 10.2946ZM19.1856 26.9251C19.2698 26.9188 19.2823 26.869 19.3041 26.8316C20.3545 25.1115 21.3986 23.3883 22.4584 21.6745C22.5643 21.5062 22.4895 21.4096 22.4147 21.2881C20.2267 17.7015 18.0386 14.118 15.8568 10.5283C15.7477 10.3507 15.6324 10.2914 15.4267 10.2914C13.4038 10.3008 11.3778 10.2977 9.35499 10.2977C9.26772 10.2977 9.17733 10.2727 9.06824 10.3382C12.4438 15.8723 15.8163 21.4065 19.1825 26.9282L19.1856 26.9251ZM18.8459 33.0731H29.9482C28.0937 30.0349 26.2578 27.0216 24.3939 23.9648C22.5301 27.0216 20.7004 30.0287 18.8459 33.0731ZM35.6958 39.997H13.1108C13.5067 40.3304 13.9617 40.5236 14.4168 40.7074C17.1347 41.795 19.9804 42.3029 22.8916 42.4275C24.4002 42.493 25.9119 42.4711 27.4173 42.3185C28.6797 42.1876 29.9264 41.9882 31.1638 41.7077C32.3358 41.4428 33.4703 41.0689 34.5768 40.6077C34.9664 40.4457 35.3685 40.2961 35.6926 40.0001L35.6958 39.997ZM32.2236 36.7064H16.5363C19.1202 38.5667 29.5368 38.5885 32.2236 36.7064Z" fill="white"/>
<path d="M18.8459 33.0732C20.7005 30.0288 22.5301 27.025 24.394 23.965C26.2579 27.0187 28.0937 30.032 29.9483 33.0732H18.8459Z" fill="#A433FF"/>
<path d="M64.9986 35L59.2066 12.6H64.3266L67.9426 29.624L72.2946 12.6H77.6066L81.7986 29.592L85.4466 12.6H90.6306L84.6466 35H78.8866L74.8866 19.352L70.7586 35H64.9986ZM99.0631 35.384C97.3991 35.384 95.9378 35.0427 94.6791 34.36C93.4205 33.656 92.4285 32.6853 91.7031 31.448C90.9991 30.1893 90.6471 28.7493 90.6471 27.128C90.6471 25.464 90.9991 23.9813 91.7031 22.68C92.4071 21.3787 93.3885 20.3547 94.6471 19.608C95.9058 18.8613 97.3671 18.488 99.0311 18.488C100.652 18.488 102.071 18.84 103.287 19.544C104.503 20.248 105.452 21.208 106.135 22.424C106.839 23.6187 107.191 25.0053 107.191 26.584C107.191 26.7973 107.18 27.0427 107.159 27.32C107.159 27.576 107.138 27.8427 107.095 28.12H94.0711V25.336H102.295C102.252 24.44 101.922 23.7253 101.303 23.192C100.706 22.6373 99.9591 22.36 99.0631 22.36C98.3805 22.36 97.7618 22.52 97.2071 22.84C96.6525 23.16 96.2045 23.64 95.8631 24.28C95.5431 24.92 95.3831 25.7307 95.3831 26.712V27.672C95.3831 28.4187 95.5218 29.08 95.7991 29.656C96.0978 30.232 96.5138 30.68 97.0471 31C97.6018 31.32 98.2525 31.48 98.9991 31.48C99.7031 31.48 100.279 31.3413 100.727 31.064C101.196 30.7653 101.559 30.392 101.815 29.944H106.711C106.412 30.968 105.9 31.896 105.175 32.728C104.45 33.5387 103.564 34.1893 102.519 34.68C101.474 35.1493 100.322 35.384 99.0631 35.384ZM110.081 35V11.96H114.881V35H110.081ZM129.162 35L122.506 26.168L128.426 18.872H134.09L126.122 28.216V24.376L135.114 35H129.162ZM118.41 35V11.96H123.21V35H118.41ZM143.295 35.384C141.738 35.384 140.34 35.0213 139.103 34.296C137.866 33.5707 136.884 32.5787 136.159 31.32C135.434 30.04 135.071 28.5893 135.071 26.968C135.071 25.304 135.434 23.8427 136.159 22.584C136.884 21.304 137.866 20.3013 139.103 19.576C140.362 18.8507 141.759 18.488 143.295 18.488C144.874 18.488 146.282 18.8507 147.519 19.576C148.756 20.3013 149.738 21.304 150.463 22.584C151.188 23.8427 151.551 25.2933 151.551 26.936C151.551 28.5787 151.188 30.04 150.463 31.32C149.738 32.5787 148.756 33.5707 147.519 34.296C146.282 35.0213 144.874 35.384 143.295 35.384ZM143.295 31.224C143.935 31.224 144.5 31.064 144.991 30.744C145.503 30.424 145.908 29.944 146.207 29.304C146.506 28.664 146.655 27.8747 146.655 26.936C146.655 25.9973 146.506 25.208 146.207 24.568C145.908 23.928 145.514 23.448 145.023 23.128C144.532 22.808 143.967 22.648 143.327 22.648C142.687 22.648 142.111 22.808 141.599 23.128C141.108 23.448 140.714 23.928 140.415 24.568C140.116 25.208 139.967 25.9973 139.967 26.936C139.967 27.8747 140.116 28.664 140.415 29.304C140.714 29.944 141.108 30.424 141.599 30.744C142.111 31.064 142.676 31.224 143.295 31.224ZM154.598 35V18.872H158.79L159.206 20.952C159.718 20.2053 160.39 19.608 161.222 19.16C162.076 18.712 163.057 18.488 164.166 18.488C164.956 18.488 165.67 18.5947 166.31 18.808C166.95 19 167.516 19.2987 168.006 19.704C168.497 20.088 168.902 20.5787 169.222 21.176C169.841 20.344 170.63 19.6933 171.59 19.224C172.55 18.7333 173.596 18.488 174.726 18.488C176.177 18.488 177.372 18.776 178.31 19.352C179.27 19.928 179.985 20.76 180.454 21.848C180.924 22.936 181.158 24.2587 181.158 25.816V35H176.39V26.232C176.39 25.0587 176.156 24.152 175.686 23.512C175.238 22.8507 174.513 22.52 173.51 22.52C172.87 22.52 172.305 22.68 171.814 23C171.324 23.32 170.94 23.768 170.662 24.344C170.406 24.92 170.278 25.6133 170.278 26.424V35H165.51V26.232C165.51 25.0587 165.276 24.152 164.806 23.512C164.337 22.8507 163.58 22.52 162.534 22.52C161.937 22.52 161.393 22.68 160.902 23C160.433 23.32 160.06 23.768 159.782 24.344C159.526 24.92 159.398 25.6133 159.398 26.424V35H154.598ZM192.457 35.384C190.793 35.384 189.332 35.0427 188.073 34.36C186.814 33.656 185.822 32.6853 185.097 31.448C184.393 30.1893 184.041 28.7493 184.041 27.128C184.041 25.464 184.393 23.9813 185.097 22.68C185.801 21.3787 186.782 20.3547 188.041 19.608C189.3 18.8613 190.761 18.488 192.425 18.488C194.046 18.488 195.465 18.84 196.681 19.544C197.897 20.248 198.846 21.208 199.529 22.424C200.233 23.6187 200.585 25.0053 200.585 26.584C200.585 26.7973 200.574 27.0427 200.553 27.32C200.553 27.576 200.532 27.8427 200.489 28.12H187.465V25.336H195.689C195.646 24.44 195.316 23.7253 194.697 23.192C194.1 22.6373 193.353 22.36 192.457 22.36C191.774 22.36 191.156 22.52 190.601 22.84C190.046 23.16 189.598 23.64 189.257 24.28C188.937 24.92 188.777 25.7307 188.777 26.712V27.672C188.777 28.4187 188.916 29.08 189.193 29.656C189.492 30.232 189.908 30.68 190.441 31C190.996 31.32 191.646 31.48 192.393 31.48C193.097 31.48 193.673 31.3413 194.121 31.064C194.59 30.7653 194.953 30.392 195.209 29.944H200.105C199.806 30.968 199.294 31.896 198.569 32.728C197.844 33.5387 196.958 34.1893 195.913 34.68C194.868 35.1493 193.716 35.384 192.457 35.384Z" fill="white"/>
</svg>
