<svg width="53" height="52" viewBox="0 0 53 52" fill="none" xmlns="http://www.w3.org/2000/svg">
<path d="M22.4578 23.0293L21.5945 25.4008H23.3414L22.4578 23.0293Z" fill="white"/>
<path d="M37.3316 13.188H16.3539C15.516 13.188 14.8304 13.8735 14.8304 14.7114V35.6892C14.8304 36.527 15.516 37.2126 16.3539 37.2126H37.3316C38.1695 37.2126 38.8551 36.527 38.8551 35.6892V14.7114C38.8551 13.8685 38.1695 13.188 37.3316 13.188ZM32.3144 21.5415H33.6043V27.9298H32.3144V21.5415ZM26.3984 21.5415H28.4703C29.2574 21.5415 29.7652 21.572 30.0039 21.638C30.3695 21.7345 30.6742 21.9427 30.923 22.2626C31.1718 22.5825 31.2937 22.9989 31.2937 23.5067C31.2937 23.8978 31.2226 24.2278 31.0804 24.497C30.9383 24.7661 30.7554 24.9743 30.5371 25.1267C30.3187 25.279 30.0953 25.3806 29.8668 25.4313C29.557 25.4923 29.1152 25.5228 28.5261 25.5228H27.6832V27.9298H26.3984V21.5415ZM21.7926 21.5415H23.1586L25.7129 27.9298H24.3113L23.7527 26.4774H21.1984L20.6703 27.9298H19.2992L21.7926 21.5415ZM33.4265 35.42H18.4054C17.4203 35.42 16.623 34.6228 16.623 33.6376V18.6571C16.623 18.3778 16.8515 18.1493 17.1308 18.1493C17.4101 18.1493 17.6386 18.3778 17.6386 18.6571V33.6376C17.6386 34.0591 17.984 34.4044 18.4054 34.4044H33.4265C33.7058 34.4044 33.9343 34.6329 33.9343 34.9122C33.9343 35.1915 33.7109 35.42 33.4265 35.42Z" fill="white"/>
<path d="M29.4149 24.3346C29.5875 24.2686 29.7195 24.1619 29.816 24.0197C29.9125 23.8775 29.9633 23.71 29.9633 23.5221C29.9633 23.2885 29.8973 23.0955 29.7602 22.9482C29.6231 22.7959 29.4504 22.7045 29.2422 22.6639C29.0899 22.6334 28.7801 22.6182 28.3129 22.6182H27.6883V24.4311H28.3942C28.902 24.4361 29.2422 24.4006 29.4149 24.3346Z" fill="white"/>
<path d="M17.1328 18.6494L17.1387 18.6553V33.6377C17.1387 34.3353 17.7077 34.9042 18.4053 34.9043H33.4297L33.4307 34.9053L33.4326 34.9062L33.4336 34.9082C33.4338 34.9086 33.4346 34.9097 33.4346 34.9121V34.9141L33.4287 34.9199H18.4053C17.6963 34.9198 17.123 34.3466 17.123 33.6377V18.6553L17.1289 18.6494H17.1328Z" stroke="#005BFF"/>
<path d="M44.4258 19.6271C44.9844 19.6271 45.4414 19.1701 45.4414 18.6115C45.4414 18.0529 44.9844 17.5959 44.4258 17.5959H40.8863V14.7115C40.8863 12.7514 39.2918 11.1568 37.3316 11.1568H35.9199V7.73926C35.9199 7.18066 35.4629 6.72363 34.9043 6.72363C34.3457 6.72363 33.8887 7.18066 33.8887 7.73926V11.1568H31.5273V7.73926C31.5273 7.18066 31.0703 6.72363 30.5117 6.72363C29.9531 6.72363 29.4961 7.18066 29.4961 7.73926V11.1568H27.1348V7.73926C27.1348 7.18066 26.6777 6.72363 26.1191 6.72363C25.5605 6.72363 25.1035 7.18066 25.1035 7.73926V11.1568H22.7422V7.73926C22.7422 7.18066 22.2852 6.72363 21.7266 6.72363C21.168 6.72363 20.7109 7.18066 20.7109 7.73926V11.1568H16.3539C14.3938 11.1568 12.7992 12.7514 12.7992 14.7115V17.5959H9.25977C8.70117 17.5959 8.24414 18.0529 8.24414 18.6115C8.24414 19.1701 8.70117 19.6271 9.25977 19.6271H12.7992V21.9885H9.25977C8.70117 21.9885 8.24414 22.4455 8.24414 23.0041C8.24414 23.5627 8.70117 24.0197 9.25977 24.0197H12.7992V26.3811H9.25977C8.70117 26.3811 8.24414 26.8381 8.24414 27.3967C8.24414 27.9553 8.70117 28.4123 9.25977 28.4123H12.7992V30.7736H9.25977C8.70117 30.7736 8.24414 31.2307 8.24414 31.7893C8.24414 32.3479 8.70117 32.8049 9.25977 32.8049H12.7992V35.6893C12.7992 37.6494 14.3938 39.2439 16.3539 39.2439H17.918V42.9256C17.918 43.4842 18.375 43.9412 18.9336 43.9412C19.4922 43.9412 19.9492 43.4842 19.9492 42.9256V39.2439H22.3105V42.9256C22.3105 43.4842 22.7676 43.9412 23.3262 43.9412C23.8848 43.9412 24.3418 43.4842 24.3418 42.9256V39.2439H26.7031V42.9256C26.7031 43.4842 27.1602 43.9412 27.7188 43.9412C28.2773 43.9412 28.7344 43.4842 28.7344 42.9256V39.2439H31.0957V42.9256C31.0957 43.4842 31.5527 43.9412 32.1113 43.9412C32.6699 43.9412 33.127 43.4842 33.127 42.9256V39.2439H37.3316C39.2918 39.2439 40.8863 37.6494 40.8863 35.6893V32.8049H44.4258C44.9844 32.8049 45.4414 32.3479 45.4414 31.7893C45.4414 31.2307 44.9844 30.7736 44.4258 30.7736H40.8863V28.4123H44.4258C44.9844 28.4123 45.4414 27.9553 45.4414 27.3967C45.4414 26.8381 44.9844 26.3811 44.4258 26.3811H40.8863V24.0197H44.4258C44.9844 24.0197 45.4414 23.5627 45.4414 23.0041C45.4414 22.4455 44.9844 21.9885 44.4258 21.9885H40.8863V19.6271H44.4258ZM38.8551 35.6842C38.8551 36.5221 38.1695 37.2076 37.3316 37.2076H16.3539C15.516 37.2076 14.8305 36.5221 14.8305 35.6842V14.7115C14.8305 13.8736 15.516 13.1881 16.3539 13.1881H37.3316C38.1695 13.1881 38.8551 13.8736 38.8551 14.7115V35.6842Z" stroke="#005BFF"/>
<path d="M33.1039 22.0415V27.4302H32.8148V22.0415H33.1039ZM28.475 22.0415C28.8608 22.0415 29.174 22.049 29.4154 22.064C29.6653 22.0795 29.8091 22.1014 29.8754 22.1196L29.8812 22.1216C30.1318 22.1877 30.346 22.3287 30.5336 22.5698C30.6969 22.7799 30.7991 23.0786 30.7992 23.5063C30.7992 23.8385 30.7378 24.0836 30.6429 24.2632C30.5348 24.4678 30.4038 24.6133 30.2562 24.7163C30.0841 24.8364 29.9197 24.9071 29.7631 24.9419C29.501 24.992 29.0966 25.0229 28.5316 25.0229H27.1879V27.4302H26.8988V22.0415H28.475ZM22.2845 22.0415L21.9877 22.8579L21.1244 25.23L20.8802 25.9009H24.0551L23.8051 25.2271L22.9271 22.856L22.6254 22.0415H22.8158L24.974 27.4302H24.6547L24.2191 26.2983L24.0961 25.9771H20.848L20.7289 26.3062L20.3207 27.4302H20.0306L22.1293 22.0415H22.2845ZM27.1879 24.9409H28.3939C28.8947 24.9409 29.3231 24.9094 29.5931 24.8062L29.598 24.8052C29.8522 24.705 30.0728 24.5367 30.2299 24.3052C30.3858 24.0752 30.4633 23.8086 30.4633 23.5269C30.4632 23.1963 30.3651 22.8775 30.1322 22.6187C29.9223 22.3854 29.6514 22.2342 29.3363 22.1782H29.3373C29.3357 22.1779 29.334 22.1775 29.3324 22.1772C29.3304 22.1769 29.3285 22.1766 29.3265 22.1763H29.3256C29.1126 22.137 28.7653 22.1235 28.3129 22.1235H27.1879V24.9409Z" stroke="#005BFF"/>
</svg>
