<svg width="53" height="52" viewBox="0 0 53 52" fill="none" xmlns="http://www.w3.org/2000/svg">
<path d="M12.0413 37.625C12.028 37.6786 12.0136 37.7322 11.9983 37.7852L11.8889 38.1611L12.2278 38.3574L22.9153 44.5273L23.2542 44.7227L23.5256 44.4414C24.2765 43.6622 25.3304 43.1787 26.5002 43.1787C27.7114 43.1788 28.798 43.6971 29.553 44.5254L29.8245 44.8232L30.1731 44.6221L40.8079 38.4814L41.1565 38.2803L41.0344 37.8965C41.006 37.8072 40.9806 37.717 40.9583 37.626L40.8645 37.2451H12.135L12.0413 37.625ZM27.6545 8.59473C27.2891 8.70056 26.9017 8.75682 26.5002 8.75684C26.1 8.75684 25.7134 8.70091 25.3489 8.5957L24.9729 8.4873L24.7776 8.82617L10.7971 33.0391L10.6008 33.3799L10.885 33.6514C11.1624 33.916 11.4083 34.2243 11.6116 34.5742C11.8123 34.9238 11.956 35.2895 12.0461 35.6611L12.1389 36.043H40.8616L40.9543 35.6611C41.0447 35.2885 41.1889 34.922 41.3899 34.5723C41.5919 34.2209 41.8371 33.9109 42.1155 33.6455L42.4006 33.374L42.2034 33.0342L28.2258 8.82422L28.0305 8.48535L27.6545 8.59473ZM22.9202 7.41309L12.219 13.5918L11.8801 13.7871L11.9885 14.1631C12.2859 15.2021 12.1776 16.3532 11.5969 17.3633C11.0162 18.3734 10.0709 19.0432 9.0188 19.3047L8.63989 19.3994V32.5352L9.01978 32.6289C9.07428 32.6424 9.12899 32.6572 9.18286 32.6729L9.55884 32.7822L9.75513 32.4424L23.7356 8.22754L23.9319 7.8877L23.6477 7.61621C23.6076 7.57792 23.5681 7.53889 23.5295 7.49902L23.2581 7.21777L22.9202 7.41309ZM7.43774 19.4072L7.05396 19.3154C6.67736 19.2252 6.30671 19.0801 5.95337 18.877C3.97979 17.7423 3.30424 15.2105 4.44067 13.2334C5.57486 11.2604 8.10546 10.5829 10.0823 11.7178V11.7188C10.4367 11.9247 10.7489 12.1741 11.0159 12.4561L11.2874 12.7422L11.6282 12.5449L22.3108 6.37793L22.6516 6.18066L22.5403 5.80371C22.4306 5.43226 22.3714 5.03785 22.3713 4.62891C22.3713 2.3454 24.2167 0.5 26.5002 0.5C28.7837 0.500117 30.6282 2.34547 30.6282 4.62891C30.6281 5.04009 30.5691 5.43633 30.4583 5.80957L30.3459 6.1875L30.6877 6.38477L41.3665 12.5508L41.7092 12.748L41.9797 12.4609C42.2477 12.1771 42.5608 11.9248 42.9172 11.7178C44.8311 10.6188 47.2561 11.218 48.4495 13.0537L48.5608 13.2354C49.6945 15.2102 49.0214 17.7285 47.0461 18.877C46.6928 19.08 46.3222 19.2253 45.9456 19.3154L45.5618 19.4072V32.5312L45.9446 32.624C46.3167 32.7143 46.6832 32.857 47.0325 33.0576V33.0586C49.022 34.2074 49.6938 36.7259 48.5471 38.7002L48.5461 38.7021C47.4115 40.6759 44.8797 41.3524 42.9026 40.2158C42.5089 39.9895 42.1676 39.7083 41.8821 39.3877L41.6116 39.083L41.259 39.2871L30.6448 45.415L30.2922 45.6191L30.4202 46.0049C30.5553 46.4131 30.6281 46.8509 30.6282 47.3066C30.6282 49.5777 28.7827 51.4354 26.5002 51.4355C24.2167 51.4355 22.3713 49.5901 22.3713 47.3066C22.3714 46.9 22.4299 46.5082 22.5383 46.1387L22.6497 45.7607L22.3088 45.5645L11.6321 39.4004L11.2913 39.2041L11.0208 39.4883C10.7563 39.7658 10.4475 40.0114 10.0979 40.2148C8.1067 41.3526 5.58775 40.6755 4.45337 38.7021C3.31796 36.7265 3.99192 34.206 5.96899 33.0576L5.96802 33.0566C6.31762 32.8559 6.68426 32.7132 7.05591 32.623L7.43774 32.5303V19.4072ZM44.3606 19.3994L43.9807 19.3047C42.9288 19.0431 41.9832 18.3733 41.4026 17.3633C40.8231 16.3551 40.7147 15.2064 41.01 14.1689L41.1174 13.7939L40.7795 13.5986L30.0745 7.41797L29.7375 7.22363L29.4661 7.50293C29.4298 7.54031 29.3924 7.57729 29.3547 7.61328L29.0715 7.88477L29.2678 8.22461L43.2483 32.4395L43.4436 32.7783L43.8196 32.6699C43.8726 32.6547 43.9261 32.6411 43.9797 32.6279L44.3606 32.5342V19.3994Z" stroke="#E535AB"/>
</svg>
