<svg width="53" height="52" viewBox="0 0 53 52" fill="none" xmlns="http://www.w3.org/2000/svg">
<g opacity="0.36">
<path d="M45.459 5.375L42.2783 45.1191L26.5 49.8525L10.7207 45.1191L7.54102 5.375H45.459Z" fill="white" stroke="#1172B8"/>
<path d="M42.75 8.125H26.5V47.9375L39.5 43.875L42.75 8.125Z" fill="#33AADD"/>
<path d="M38.9238 14.3125L38.2334 19.1377L27.9453 23.0957L28.125 24.0625H37.3193L35.7861 38.627L26.5 41.7227L17.2139 38.627L16.4893 31.375H20.4023L21.1348 35.0352L21.1914 35.3203L26.5 37.0898L31.832 35.3125L32.7539 27.9375H16.3711L15.6797 23.1006L28.2744 19.165L28.125 18.1875H15.5488L14.9023 14.3125H38.9238Z" fill="white" stroke="#1172B8"/>
</g>
</svg>
