<svg width="53" height="52" viewBox="0 0 53 52" fill="none" xmlns="http://www.w3.org/2000/svg">
<g clip-path="url(#clip0_918_1707)">
<path d="M52 0.5V51.5H1V0.5H52Z" stroke="#F7DF1E"/>
<mask id="path-2-inside-1_918_1707" fill="white">
<path d="M14.1727 43.4551L18.152 41.0469C18.9198 42.408 19.6181 43.5597 21.2933 43.5597C22.899 43.5597 23.9116 42.9317 23.9116 40.4885V23.8732H28.7982V40.5575C28.7982 45.6188 25.8313 47.9226 21.5027 47.9226C17.5936 47.9226 15.3245 45.8981 14.1725 43.4547M31.4524 42.9315L35.4312 40.6278C36.4787 42.3383 37.8401 43.5949 40.2483 43.5949C42.2733 43.5949 43.5643 42.5825 43.5643 41.1862C43.5643 39.5108 42.2379 38.9173 40.004 37.9403L38.7826 37.4162C35.2569 35.9157 32.9183 34.0307 32.9183 30.0515C32.9183 26.3863 35.7107 23.5938 40.074 23.5938C43.1806 23.5938 45.4146 24.676 47.0201 27.5033L43.2152 29.9469C42.3773 28.446 41.4701 27.8527 40.0738 27.8527C38.6426 27.8527 37.735 28.7602 37.735 29.9469C37.735 31.4128 38.6426 32.0066 40.7368 32.9141L41.9584 33.4376C46.1123 35.218 48.4509 37.0329 48.4509 41.1165C48.4509 45.515 44.9953 47.9232 40.3529 47.9232C35.8153 47.9232 32.8832 45.7592 31.4522 42.9317"/>
</mask>
<path d="M14.1727 43.4551L18.152 41.0469C18.9198 42.408 19.6181 43.5597 21.2933 43.5597C22.899 43.5597 23.9116 42.9317 23.9116 40.4885V23.8732H28.7982V40.5575C28.7982 45.6188 25.8313 47.9226 21.5027 47.9226C17.5936 47.9226 15.3245 45.8981 14.1725 43.4547M31.4524 42.9315L35.4312 40.6278C36.4787 42.3383 37.8401 43.5949 40.2483 43.5949C42.2733 43.5949 43.5643 42.5825 43.5643 41.1862C43.5643 39.5108 42.2379 38.9173 40.004 37.9403L38.7826 37.4162C35.2569 35.9157 32.9183 34.0307 32.9183 30.0515C32.9183 26.3863 35.7107 23.5938 40.074 23.5938C43.1806 23.5938 45.4146 24.676 47.0201 27.5033L43.2152 29.9469C42.3773 28.446 41.4701 27.8527 40.0738 27.8527C38.6426 27.8527 37.735 28.7602 37.735 29.9469C37.735 31.4128 38.6426 32.0066 40.7368 32.9141L41.9584 33.4376C46.1123 35.218 48.4509 37.0329 48.4509 41.1165C48.4509 45.515 44.9953 47.9232 40.3529 47.9232C35.8153 47.9232 32.8832 45.7592 31.4522 42.9317" fill="white"/>
<path d="M18.152 41.0469L19.023 40.5555L18.5163 39.6575L17.6342 40.1913L18.152 41.0469ZM23.9116 23.8732V22.8732H22.9116V23.8732H23.9116ZM28.7982 23.8732H29.7982V22.8732H28.7982V23.8732ZM35.4312 40.6278L36.284 40.1056L35.7745 39.2736L34.9301 39.7624L35.4312 40.6278ZM40.004 37.9403L40.4047 37.024L40.3983 37.0213L40.004 37.9403ZM38.7826 37.4162L39.1769 36.4972L39.1742 36.4961L38.7826 37.4162ZM47.0201 27.5033L47.5605 28.3447L48.3573 27.833L47.8897 27.0095L47.0201 27.5033ZM43.2152 29.9469L42.342 30.4343L42.8605 31.3631L43.7555 30.7883L43.2152 29.9469ZM40.7368 32.9141L40.3392 33.8317L40.343 33.8333L40.7368 32.9141ZM41.9584 33.4376L42.3524 32.5185L42.3523 32.5184L41.9584 33.4376ZM14.1727 43.4551L14.6905 44.3106L18.6697 41.9024L18.152 41.0469L17.6342 40.1913L13.655 42.5996L14.1727 43.4551ZM18.152 41.0469L17.281 41.5382C17.6531 42.1978 18.087 42.9598 18.692 43.5371C19.3469 44.1622 20.1837 44.5597 21.2933 44.5597V43.5597V42.5597C20.7277 42.5597 20.3778 42.3814 20.0728 42.0903C19.7178 41.7515 19.4187 41.2571 19.023 40.5555L18.152 41.0469ZM21.2933 43.5597V44.5597C22.1967 44.5597 23.1846 44.3882 23.9183 43.6408C24.6427 42.9027 24.9116 41.8138 24.9116 40.4885H23.9116H22.9116C22.9116 41.6063 22.6742 42.0531 22.4909 42.2398C22.3168 42.4172 21.9956 42.5597 21.2933 42.5597V43.5597ZM23.9116 40.4885H24.9116V23.8732H23.9116H22.9116V40.4885H23.9116ZM23.9116 23.8732V24.8732H28.7982V23.8732V22.8732H23.9116V23.8732ZM28.7982 23.8732H27.7982V40.5575H28.7982H29.7982V23.8732H28.7982ZM28.7982 40.5575H27.7982C27.7982 42.8907 27.1196 44.4382 26.0879 45.4102C25.0455 46.3923 23.4991 46.9226 21.5027 46.9226V47.9226V48.9226C23.835 48.9226 25.9362 48.301 27.4594 46.8659C28.9933 45.4207 29.7982 43.2856 29.7982 40.5575H28.7982ZM21.5027 47.9226V46.9226C18.0262 46.9226 16.0843 45.1647 15.0771 43.0283L14.1725 43.4547L13.268 43.8811C14.5647 46.6315 17.1609 48.9226 21.5027 48.9226V47.9226ZM31.4524 42.9315L31.9534 43.7969L35.9323 41.4932L35.4312 40.6278L34.9301 39.7624L30.9513 42.066L31.4524 42.9315ZM35.4312 40.6278L34.5784 41.1501C35.1421 42.0705 35.8328 42.941 36.7651 43.5783C37.7138 44.2268 38.8554 44.5949 40.2483 44.5949V43.5949V42.5949C39.233 42.5949 38.4898 42.3346 37.8938 41.9272C37.2816 41.5087 36.7678 40.8956 36.284 40.1056L35.4312 40.6278ZM40.2483 43.5949V44.5949C41.4171 44.5949 42.4719 44.3036 43.2618 43.717C44.0714 43.1159 44.5643 42.2254 44.5643 41.1862H43.5643H42.5643C42.5643 41.5433 42.4118 41.8571 42.0695 42.1113C41.7077 42.38 41.1045 42.5949 40.2483 42.5949V43.5949ZM43.5643 41.1862H44.5643C44.5643 40.6292 44.4524 40.1161 44.2095 39.6486C43.9689 39.1855 43.6268 38.8192 43.2397 38.515C42.5061 37.9387 41.4787 37.4938 40.4047 37.0241L40.004 37.9403L39.6032 38.8565C40.7631 39.3637 41.5159 39.7042 42.0041 40.0877C42.2278 40.2635 42.3569 40.4208 42.4348 40.5707C42.5104 40.7162 42.5643 40.9055 42.5643 41.1862H43.5643ZM40.004 37.9403L40.3983 37.0213L39.1769 36.4972L38.7826 37.4162L38.3883 38.3352L39.6096 38.8592L40.004 37.9403ZM38.7826 37.4162L39.1742 36.4961C37.4587 35.766 36.1549 34.9904 35.2765 33.9999C34.4284 33.0436 33.9183 31.8202 33.9183 30.0515H32.9183H31.9183C31.9183 32.262 32.5775 33.9708 33.7802 35.3269C34.9525 36.6488 36.5807 37.5659 38.391 38.3363L38.7826 37.4162ZM32.9183 30.0515H33.9183C33.9183 28.4829 34.5107 27.1384 35.5409 26.1805C36.574 25.2199 38.1081 24.5938 40.074 24.5938V23.5938V22.5938C37.6767 22.5938 35.6329 23.3639 34.179 24.7159C32.7221 26.0705 31.9183 27.9549 31.9183 30.0515H32.9183ZM40.074 23.5938V24.5938C41.5125 24.5938 42.6712 24.8442 43.6323 25.3668C44.5869 25.8859 45.4222 26.7146 46.1505 27.9971L47.0201 27.5033L47.8897 27.0095C47.0125 25.4647 45.928 24.3386 44.5877 23.6098C43.2538 22.8844 41.7421 22.5938 40.074 22.5938V23.5938ZM47.0201 27.5033L46.4797 26.6619L42.6748 29.1055L43.2152 29.9469L43.7555 30.7883L47.5605 28.3447L47.0201 27.5033ZM43.2152 29.9469L44.0883 29.4594C43.626 28.6314 43.094 27.9599 42.407 27.5038C41.7032 27.0366 40.9238 26.8527 40.0738 26.8527V27.8527V28.8527C40.6201 28.8527 40.9925 28.9654 41.3008 29.1701C41.6258 29.3858 41.9664 29.7615 42.342 30.4343L43.2152 29.9469ZM40.0738 27.8527V26.8527C39.1449 26.8527 38.3057 27.1501 37.6888 27.7206C37.0686 28.294 36.735 29.0882 36.735 29.9469H37.735H38.735C38.735 29.6189 38.8552 29.366 39.0466 29.189C39.2413 29.009 39.5716 28.8527 40.0738 28.8527V27.8527ZM37.735 29.9469H36.735C36.735 30.9427 37.0672 31.7324 37.7772 32.3792C38.406 32.952 39.3071 33.3844 40.3392 33.8317L40.7368 32.9141L41.1345 31.9966C40.0723 31.5363 39.4725 31.2181 39.124 30.9006C38.8567 30.6572 38.735 30.417 38.735 29.9469H37.735ZM40.7368 32.9141L40.343 33.8333L41.5646 34.3568L41.9584 33.4376L42.3523 32.5184L41.1307 31.995L40.7368 32.9141ZM41.9584 33.4376L41.5645 34.3567C43.6166 35.2363 45.0758 36.0685 46.0302 37.0944C46.941 38.0737 47.4509 39.295 47.4509 41.1165H48.4509H49.4509C49.4509 38.8545 48.7915 37.1265 47.4946 35.7323C46.2412 34.3848 44.4541 33.4193 42.3524 32.5185L41.9584 33.4376ZM48.4509 41.1165H47.4509C47.4509 43.026 46.7144 44.4343 45.5193 45.3875C44.2975 46.362 42.5133 46.9232 40.3529 46.9232V47.9232V48.9232C42.835 48.9232 45.0997 48.2804 46.7664 46.9511C48.4596 45.6006 49.4509 43.6055 49.4509 41.1165H48.4509ZM40.3529 47.9232V46.9232C36.1809 46.9232 33.6001 44.9611 32.3444 42.4801L31.4522 42.9317L30.5599 43.3832C32.1663 46.5572 35.4497 48.9232 40.3529 48.9232V47.9232Z" fill="#F7DF1E" mask="url(#path-2-inside-1_918_1707)"/>
</g>
<defs>
<clipPath id="clip0_918_1707">
<rect width="52" height="52" fill="white" transform="translate(0.5)"/>
</clipPath>
</defs>
</svg>
