<svg width="53" height="52" viewBox="0 0 53 52" fill="none" xmlns="http://www.w3.org/2000/svg">
<path d="M25.6593 9.84619C25.7532 10.089 25.855 10.4179 25.963 10.8452C26.8313 14.2808 27.928 23.2953 29.255 41.2134C28.2714 41.8011 27.5205 42.7159 27.1398 43.8042L27.1222 43.854L27.1154 43.9067C26.9413 45.2782 26.8901 46.6618 26.9601 48.0415L26.7882 47.9839C26.7874 47.8187 26.7858 47.6052 26.7775 47.3569C26.7574 46.7598 26.7072 45.9536 26.5841 45.1294C26.462 44.3117 26.2635 43.4445 25.9347 42.7407C25.6516 42.1348 25.2273 41.5586 24.589 41.3228C24.5854 41.3077 24.5801 41.2915 24.5763 41.2739C24.542 41.1159 24.5073 40.8916 24.4747 40.6011C24.4099 40.022 24.3562 39.2205 24.3146 38.2437C24.2314 36.2919 24.1984 33.6708 24.2159 30.7935C24.2511 25.0358 24.4904 18.2835 24.9406 13.854C25.053 12.7474 25.178 11.7932 25.3146 11.0396C25.4176 10.4713 25.523 10.0456 25.6232 9.75928C25.6345 9.78645 25.6473 9.81518 25.6593 9.84619Z" fill="#C4C4C4" stroke="#429845"/>
<path d="M27.0166 5.9165L27.2158 6.23779C27.3311 6.4594 27.5154 6.68699 27.7148 6.90869C27.9404 7.15937 28.2307 7.45464 28.5518 7.78662C29.2008 8.45771 30.0229 9.32824 30.8994 10.479C32.5398 12.6328 34.3816 15.7869 35.5752 20.4517L35.8047 21.4048C36.6013 25.2927 36.2795 29.3271 34.876 33.0396C33.5131 36.6443 31.182 39.7988 28.1465 42.1655C28.0528 42.0753 27.9564 41.9554 27.8643 41.7944C27.6961 41.5007 27.5539 41.1099 27.4385 40.6392C27.2076 39.6972 27.1043 38.515 27.0742 37.3394C27.0442 36.1691 27.0865 35.0288 27.1367 34.1792C27.1618 33.755 27.1894 33.4045 27.21 33.1606C27.2202 33.0389 27.2292 32.9438 27.2354 32.8794C27.2384 32.8472 27.2406 32.8224 27.2422 32.8062C27.243 32.798 27.2437 32.7916 27.2441 32.7876V32.7827L27.2471 32.7524V32.7231L26.8311 5.60303C26.8917 5.70822 26.9536 5.81265 27.0166 5.9165Z" fill="#F0F0F0" stroke="#429845"/>
<path d="M26.0161 5.42676C26.0443 5.88578 26.0705 6.40576 26.0933 6.97461C26.1716 8.92888 26.2194 11.4365 26.2495 13.9746C26.3096 19.0353 26.3009 24.2415 26.3335 25.3311C26.4589 29.5359 26.3417 33.5846 26.1069 36.7773C25.9895 38.3741 25.8435 39.7527 25.6841 40.8262C25.5902 41.4583 25.4921 41.9669 25.3999 42.3477C25.1511 42.1515 24.8271 41.8883 24.4536 41.5557C23.549 40.7501 22.3473 39.5519 21.1636 37.9873C18.7958 34.8576 16.5141 30.2804 16.7944 24.4395V24.4316L16.7954 24.4229C16.848 20.8816 17.6598 17.393 19.1763 14.1924C20.6927 10.9918 22.8782 8.15362 25.5854 5.87012L25.5874 5.86914C25.7447 5.73548 25.8871 5.58632 26.0161 5.42676Z" fill="#E6E6E6" stroke="#429845"/>
</svg>
