<svg width="53" height="52" viewBox="0 0 53 52" fill="none" xmlns="http://www.w3.org/2000/svg">
<mask id="path-1-outside-1_918_1752" maskUnits="userSpaceOnUse" x="12.5" y="10.1558" width="5" height="6" fill="black">
<rect fill="white" x="12.5" y="10.1558" width="5" height="6"/>
<path fill-rule="evenodd" clip-rule="evenodd" d="M14.7756 11.1558C14.3452 11.1544 13.9164 11.209 13.5 11.3183V11.3752H13.5618C13.86 11.8253 14.1924 12.2518 14.5562 12.6508C14.8065 13.148 15.0242 13.6437 15.2729 14.1409C15.3037 14.11 15.3346 14.0775 15.3346 14.0775C15.5655 13.8943 15.7461 13.6556 15.8598 13.3836C15.9735 13.1117 16.0164 12.8154 15.9846 12.5224C15.8485 12.3126 15.7238 12.0956 15.6109 11.8724C15.424 11.562 15.0194 11.406 14.7707 11.1574"/>
</mask>
<path d="M13.5 11.3183L13.2462 10.351L12.5 10.5468V11.3183H13.5ZM13.5 11.3752H12.5V12.3752H13.5V11.3752ZM13.5618 11.3752L14.3954 10.8229L14.0988 10.3752H13.5618V11.3752ZM14.5562 12.6508L15.4495 12.2012L15.3878 12.0785L15.2952 11.977L14.5562 12.6508ZM15.2729 14.1409L14.3784 14.5881L14.9989 15.8291L15.98 14.848L15.2729 14.1409ZM15.3346 14.0775L14.7129 13.2943L14.658 13.3379L14.6096 13.3888L15.3346 14.0775ZM15.9846 12.5224L16.9788 12.4146L16.9531 12.178L16.8236 11.9783L15.9846 12.5224ZM15.6109 11.8724L16.5032 11.421L16.4866 11.3882L16.4676 11.3566L15.6109 11.8724ZM14.7756 11.1558L14.7788 10.1558C14.2616 10.1541 13.7465 10.2198 13.2462 10.351L13.5 11.3183L13.7538 12.2855C14.0863 12.1983 14.4287 12.1547 14.7724 12.1558L14.7756 11.1558ZM13.5 11.3183H12.5V11.3752H13.5H14.5V11.3183H13.5ZM13.5 11.3752V12.3752H13.5618V11.3752V10.3752H13.5V11.3752ZM13.5618 11.3752L12.7281 11.9274C13.0547 12.4205 13.4188 12.8875 13.8173 13.3246L14.5562 12.6508L15.2952 11.977C14.966 11.616 14.6652 11.2302 14.3954 10.8229L13.5618 11.3752ZM14.5562 12.6508L13.663 13.1003C13.7813 13.3354 13.8929 13.5721 14.0103 13.8216C14.1261 14.0675 14.2478 14.3269 14.3784 14.5881L15.2729 14.1409L16.1673 13.6937C16.0493 13.4577 15.9379 13.2206 15.82 12.9701C15.7038 12.7231 15.5814 12.4634 15.4495 12.2012L14.5562 12.6508ZM15.2729 14.1409L15.98 14.848C16.001 14.827 16.0208 14.8067 16.0345 14.7925C16.0416 14.7851 16.0475 14.7789 16.0518 14.7744C16.054 14.7722 16.0558 14.7703 16.0571 14.769C16.0577 14.7683 16.0583 14.7677 16.0587 14.7673C16.0589 14.767 16.0591 14.7668 16.0593 14.7667C16.0593 14.7666 16.0594 14.7665 16.0595 14.7665C16.0595 14.7664 16.0595 14.7664 16.0595 14.7664C16.0596 14.7664 16.0596 14.7663 16.0596 14.7663C16.0596 14.7663 16.0596 14.7663 16.0596 14.7663C16.0596 14.7663 16.0596 14.7663 15.3346 14.0775C14.6096 13.3888 14.6096 13.3888 14.6097 13.3888C14.6097 13.3888 14.6097 13.3887 14.6097 13.3887C14.6097 13.3887 14.6097 13.3887 14.6097 13.3887C14.6097 13.3887 14.6097 13.3887 14.6097 13.3887C14.6098 13.3886 14.6098 13.3886 14.6098 13.3886C14.6099 13.3885 14.6099 13.3885 14.6098 13.3886C14.6098 13.3886 14.6096 13.3888 14.6094 13.389C14.6089 13.3895 14.608 13.3905 14.6068 13.3917C14.6043 13.3943 14.6006 13.3982 14.5961 13.4028C14.5867 13.4126 14.5756 13.4239 14.5658 13.4338L15.2729 14.1409ZM15.3346 14.0775L15.9564 14.8608C16.3195 14.5725 16.6037 14.197 16.7825 13.7693L15.8598 13.3836L14.9372 12.998C14.8886 13.1141 14.8115 13.2161 14.7129 13.2943L15.3346 14.0775ZM15.8598 13.3836L16.7825 13.7693C16.9612 13.3415 17.0288 12.8755 16.9788 12.4146L15.9846 12.5224L14.9905 12.6302C15.004 12.7554 14.9857 12.8819 14.9372 12.998L15.8598 13.3836ZM15.9846 12.5224L16.8236 11.9783C16.707 11.7984 16.6 11.6124 16.5032 11.421L15.6109 11.8724L14.7186 12.3238C14.8476 12.5788 14.9901 12.8268 15.1456 13.0665L15.9846 12.5224ZM15.6109 11.8724L16.4676 11.3566C16.2564 11.0059 15.9516 10.7874 15.7873 10.6724C15.5616 10.5145 15.5203 10.4928 15.4779 10.4503L14.7707 11.1574L14.0636 11.8645C14.1814 11.9823 14.3032 12.075 14.3974 12.1427C14.4687 12.1938 14.6052 12.2863 14.6406 12.3111C14.7875 12.4138 14.7785 12.4286 14.7542 12.3882L15.6109 11.8724Z" fill="#00758F" mask="url(#path-1-outside-1_918_1752)"/>
<mask id="path-3-outside-2_918_1752" maskUnits="userSpaceOnUse" x="1.94995" y="2.74658" width="49" height="48" fill="black">
<rect fill="white" x="1.94995" y="2.74658" width="49" height="48"/>
<path fill-rule="evenodd" clip-rule="evenodd" d="M45.6425 38.2738C43.5927 38.1299 41.5359 38.4269 39.6105 39.1449C39.1442 39.3317 38.3999 39.3317 38.3349 39.9216C38.5852 40.1702 38.6144 40.5716 38.8338 40.9177C39.2594 41.6383 39.8064 42.2799 40.4507 42.8141C41.1007 43.3114 41.7507 43.807 42.4413 44.2425C43.6519 44.9916 45.0218 45.4255 46.2015 46.1713C46.8873 46.6068 47.5698 47.1658 48.2555 47.6339C48.5968 47.8825 48.8129 48.2838 49.2484 48.4464V48.3521C49.1205 48.0068 48.9622 47.6734 48.7755 47.356C48.4652 47.0472 48.1532 46.7661 47.8412 46.4557C46.9297 45.2504 45.8391 44.1917 44.6074 43.3162C43.6113 42.6305 41.4338 41.6912 41.0324 40.5537L40.969 40.4903C41.6979 40.3871 42.4163 40.2196 43.1157 39.9898C44.1719 39.7104 45.1355 39.7737 46.2227 39.5023C46.7215 39.3772 47.6234 39.0668 47.6234 39.0668V38.5793C47.0677 38.0268 46.6695 37.2875 46.0845 36.7659C44.493 35.3766 42.7969 34.1118 41.0113 32.9829C40.0574 32.367 38.8273 31.9705 37.8117 31.4456C37.4444 31.2603 36.8367 31.1693 36.614 30.8606C36.1089 30.1196 35.6861 29.3257 35.353 28.493C34.4625 26.803 33.5997 24.9293 32.8327 23.1418C32.3787 21.9439 31.8551 20.7736 31.2645 19.6367C28.4148 14.7917 24.3015 10.8127 19.3647 8.12523C18.119 7.52228 16.7946 7.09777 15.4305 6.86423C14.6603 6.83173 13.8933 6.7716 13.1247 6.74235C12.6285 6.41729 12.1565 6.05668 11.7125 5.66335C9.95429 4.55023 5.43679 2.15823 4.14329 5.32535C3.31454 7.32573 5.37504 9.29198 6.08192 10.3076C6.67795 11.0237 7.20312 11.796 7.65004 12.6135C7.86617 13.1367 7.92792 13.6909 8.13754 14.2385C8.58862 15.6443 9.12422 17.0215 9.74142 18.3627C10.0715 19.0256 10.4518 19.6623 10.8789 20.2672C11.1275 20.6068 11.5565 20.7547 11.6492 21.3153C11.3084 22.0478 11.07 22.8237 10.9407 23.6212C10.4035 25.3176 10.2058 27.1031 10.3589 28.8759C10.512 30.6486 11.0128 32.3738 11.8328 33.953C12.3203 34.7216 13.4935 36.4132 15.0617 35.7665C16.4445 35.214 16.1374 33.4606 16.5372 31.925C16.6282 31.5529 16.568 31.3091 16.7517 31.0637V31.3627C16.7517 31.3627 17.5365 33.0868 17.9265 33.9627C18.9871 35.5699 20.3047 36.9917 21.8265 38.1715C22.4285 38.697 22.9135 39.3431 23.25 40.0678V40.6252H23.9439C23.9295 40.3739 23.8598 40.1289 23.7399 39.9076C23.6199 39.6862 23.4527 39.4941 23.25 39.3447C22.681 38.7591 22.1599 38.1287 21.6917 37.4597C20.4197 35.6482 19.298 33.7357 18.3377 31.7414C17.8502 30.7664 17.439 29.6971 17.049 28.7237C16.8703 28.3484 16.8703 27.7812 16.5697 27.5862C16.0146 28.243 15.5329 28.9585 15.1332 29.7198C14.6479 31.2588 14.3655 32.8545 14.293 34.4665C14.1744 34.499 14.2329 34.4665 14.1744 34.5282C13.2173 34.2763 12.8874 33.2412 12.5267 32.3637C11.5947 29.6574 11.5007 26.7329 12.2569 23.9722C12.4649 23.3141 13.3668 21.2406 13.006 20.6117C12.8257 20.0121 12.226 19.6692 11.8978 19.1964C11.4787 18.5602 11.1181 17.8874 10.8204 17.1862C10.107 15.4377 9.74629 13.4877 8.96954 11.7262C8.53956 10.8791 8.03891 10.0696 7.47292 9.3066C6.84683 8.54437 6.29456 7.7244 5.82354 6.85773C5.67404 6.5116 5.46442 5.9461 5.70329 5.5691C5.71941 5.46438 5.76921 5.36776 5.84515 5.29387C5.9211 5.21998 6.01904 5.17285 6.12417 5.1596C6.51092 4.8151 7.62079 5.25385 8.00917 5.44235C9.05299 5.85328 10.0473 6.38039 10.9732 7.01373C11.3924 7.32898 12.3804 8.12685 12.3804 8.12685H12.6729C13.6674 8.34298 14.7854 8.18698 15.7214 8.4681C17.2974 8.99345 18.8014 9.71405 20.1983 10.6131C24.3155 13.2377 27.6626 16.9078 29.8979 21.2487C30.2717 21.9621 30.4293 22.617 30.7705 23.3612C31.4205 24.8887 32.233 26.4487 32.883 27.934C33.4565 29.4034 34.1981 30.8016 35.093 32.1005C35.5578 32.7505 37.4249 33.095 38.265 33.4362C38.9946 33.6886 39.7106 33.9788 40.41 34.3056C41.4679 34.9556 42.5225 35.7047 43.5187 36.4181C44.0143 36.7918 45.5694 37.5686 45.6637 38.191"/>
</mask>
<path d="M39.6105 39.1449L39.2611 38.2079L39.2498 38.2121L39.2386 38.2166L39.6105 39.1449ZM38.3349 39.9216L37.3409 39.8121L37.2881 40.2912L37.6301 40.631L38.3349 39.9216ZM38.8338 40.9177L39.6948 40.4092L39.6868 40.3957L39.6784 40.3824L38.8338 40.9177ZM40.4507 42.8141L39.8124 43.5839L39.8275 43.5964L39.8431 43.6083L40.4507 42.8141ZM42.4413 44.2425L41.9079 45.0884L41.9151 45.0928L42.4413 44.2425ZM46.2015 46.1713L46.7376 45.3272L46.7359 45.3261L46.2015 46.1713ZM48.2555 47.6339L48.8444 46.8256L48.832 46.8165L48.8192 46.8079L48.2555 47.6339ZM49.2484 48.4464L48.8988 49.3833L50.2484 49.8868V48.4464H49.2484ZM49.2484 48.3521H50.2484V48.1728L50.1861 48.0047L49.2484 48.3521ZM48.7755 47.356L49.6375 46.8491L49.5722 46.7379L49.4808 46.647L48.7755 47.356ZM47.8412 46.4557L47.0436 47.0589L47.086 47.115L47.1359 47.1647L47.8412 46.4557ZM44.6074 43.3162L45.1868 42.5011L45.1806 42.4968L45.1745 42.4925L44.6074 43.3162ZM41.0324 40.5537L41.9754 40.221L41.8999 40.007L41.7395 39.8466L41.0324 40.5537ZM40.969 40.4903L40.8287 39.5002L38.8456 39.7812L40.262 41.1975L40.969 40.4903ZM43.1157 39.9898L42.8599 39.0231L42.8315 39.0306L42.8036 39.0398L43.1157 39.9898ZM46.2227 39.5023L46.4649 40.4726L46.4659 40.4723L46.2227 39.5023ZM47.6234 39.0668L47.9488 40.0124L48.6234 39.7803V39.0668H47.6234ZM47.6234 38.5793H48.6234V38.1634L48.3284 37.8702L47.6234 38.5793ZM46.0845 36.7659L46.7501 36.0194L46.7422 36.0125L46.0845 36.7659ZM41.0113 32.9829L40.4688 33.823L40.4769 33.8281L41.0113 32.9829ZM37.8117 31.4456L38.2708 30.5572L38.262 30.5528L37.8117 31.4456ZM36.614 30.8606L35.7877 31.4238L35.7952 31.4347L35.8029 31.4455L36.614 30.8606ZM35.353 28.493L36.2815 28.1216L36.2621 28.0731L36.2377 28.0268L35.353 28.493ZM32.8327 23.1418L31.8976 23.4962L31.9052 23.5164L31.9137 23.5362L32.8327 23.1418ZM31.2645 19.6367L32.152 19.1757L32.1398 19.1524L32.1265 19.1297L31.2645 19.6367ZM19.3647 8.12523L19.8428 7.24693L19.8218 7.23552L19.8003 7.22513L19.3647 8.12523ZM15.4305 6.86423L15.5993 5.87857L15.5364 5.8678L15.4727 5.86511L15.4305 6.86423ZM13.1247 6.74235L12.5767 7.57883L12.809 7.73106L13.0866 7.74163L13.1247 6.74235ZM11.7125 5.66335L12.3756 4.91482L12.3154 4.86147L12.2474 4.81844L11.7125 5.66335ZM4.14329 5.32535L5.06716 5.7081L5.06906 5.70345L4.14329 5.32535ZM6.08192 10.3076L5.26114 10.8789L5.28575 10.9142L5.31331 10.9473L6.08192 10.3076ZM7.65004 12.6135L8.5743 12.2317L8.55356 12.1815L8.52749 12.1338L7.65004 12.6135ZM8.13754 14.2385L9.08972 13.933L9.08131 13.9067L9.07146 13.881L8.13754 14.2385ZM9.74142 18.3627L8.83299 18.7808L8.83942 18.7947L8.84627 18.8085L9.74142 18.3627ZM10.8789 20.2672L10.062 20.844L10.067 20.851L10.072 20.8579L10.8789 20.2672ZM11.6492 21.3153L12.5558 21.7372L12.6861 21.4571L12.6358 21.1523L11.6492 21.3153ZM10.9407 23.6212L11.894 23.9231L11.9161 23.8534L11.9278 23.7813L10.9407 23.6212ZM11.8328 33.953L10.9453 34.4138L10.9652 34.4521L10.9883 34.4886L11.8328 33.953ZM15.0617 35.7665L14.6906 34.8378L14.6804 34.842L15.0617 35.7665ZM16.5372 31.925L17.5049 32.1769L17.5068 32.1697L17.5085 32.1625L16.5372 31.925ZM16.7517 31.0637H17.7517V28.0584L15.951 30.4646L16.7517 31.0637ZM16.7517 31.3627H15.7517V31.5796L15.8415 31.777L16.7517 31.3627ZM17.9265 33.9627L17.013 34.3695L17.0465 34.4448L17.0919 34.5135L17.9265 33.9627ZM21.8265 38.1715L22.4842 37.4182L22.4623 37.399L22.4392 37.3811L21.8265 38.1715ZM23.25 40.0678H24.25V39.847L24.157 39.6467L23.25 40.0678ZM23.25 40.6252H22.25V41.6252H23.25V40.6252ZM23.9439 40.6252V41.6252H25.0031L24.9423 40.5678L23.9439 40.6252ZM23.25 39.3447L22.5328 40.0416L22.5903 40.1008L22.6568 40.1498L23.25 39.3447ZM21.6917 37.4597L22.5109 36.8863L22.5101 36.8851L21.6917 37.4597ZM18.3377 31.7414L19.2387 31.3075L19.2354 31.3008L19.2321 31.2941L18.3377 31.7414ZM17.049 28.7237L17.9773 28.3518L17.9655 28.3224L17.9519 28.2938L17.049 28.7237ZM16.5697 27.5862L17.1139 26.7473L16.3747 26.2678L15.8059 26.9407L16.5697 27.5862ZM15.1332 29.7198L14.2478 29.255L14.2063 29.334L14.1795 29.4191L15.1332 29.7198ZM14.293 34.4665L14.5573 35.4309L15.2593 35.2386L15.292 34.5114L14.293 34.4665ZM14.1744 34.5282L13.9199 35.4953L14.4929 35.6461L14.9004 35.216L14.1744 34.5282ZM12.5267 32.3637L11.5812 32.6893L11.5907 32.7169L11.6018 32.744L12.5267 32.3637ZM12.2569 23.9722L11.3034 23.6709L11.2976 23.6893L11.2924 23.708L12.2569 23.9722ZM13.006 20.6117L12.0484 20.8998L12.0815 21.0097L12.1386 21.1093L13.006 20.6117ZM11.8978 19.1964L11.0627 19.7464L11.0694 19.7566L11.0763 19.7666L11.8978 19.1964ZM10.8204 17.1862L9.89451 17.564L9.89719 17.5705L9.89996 17.5771L10.8204 17.1862ZM8.96954 11.7262L9.88453 11.3228L9.87356 11.2979L9.86126 11.2736L8.96954 11.7262ZM7.47292 9.3066L8.27608 8.71084L8.26135 8.69098L8.24566 8.67188L7.47292 9.3066ZM5.82354 6.85773L4.90551 7.25424L4.92339 7.29563L4.94492 7.33524L5.82354 6.85773ZM5.70329 5.5691L6.548 6.10433L6.65985 5.9278L6.69165 5.72125L5.70329 5.5691ZM6.12417 5.1596L6.24919 6.15175L6.55737 6.11292L6.78931 5.90632L6.12417 5.1596ZM8.00917 5.44235L7.57252 6.34199L7.6071 6.35877L7.64285 6.37284L8.00917 5.44235ZM10.9732 7.01373L11.5742 6.21447L11.5562 6.201L11.5377 6.18834L10.9732 7.01373ZM12.3804 8.12685L11.7521 8.90484L12.0271 9.12685H12.3804V8.12685ZM12.6729 8.12685L12.8853 7.14966L12.7803 7.12685H12.6729V8.12685ZM15.7214 8.4681L16.0377 7.51942L16.0234 7.51468L16.0091 7.51037L15.7214 8.4681ZM20.1983 10.6131L19.6571 11.454L19.6608 11.4563L20.1983 10.6131ZM29.8979 21.2487L29.0088 21.7065L29.0121 21.7128L29.8979 21.2487ZM30.7705 23.3612L31.6907 22.9697L31.6853 22.957L31.6795 22.9444L30.7705 23.3612ZM32.883 27.934L33.8146 27.5704L33.8073 27.5516L33.7992 27.5331L32.883 27.934ZM35.093 32.1005L34.2696 32.6679L34.2745 32.675L34.2796 32.6821L35.093 32.1005ZM38.265 33.4362L37.8887 34.3627L37.9132 34.3726L37.9381 34.3813L38.265 33.4362ZM40.41 34.3056L40.9336 33.4536L40.885 33.4237L40.8333 33.3996L40.41 34.3056ZM43.5187 36.4181L44.1208 35.6197L44.1109 35.6123L44.1009 35.6051L43.5187 36.4181ZM45.6425 38.2738L45.7126 37.2763C43.5203 37.1223 41.3204 37.44 39.2611 38.2079L39.6105 39.1449L39.9599 40.0818C41.7514 39.4138 43.6652 39.1374 45.5725 39.2714L45.6425 38.2738ZM39.6105 39.1449L39.2386 38.2166C39.1917 38.2354 39.1219 38.2553 38.9717 38.2943C38.8478 38.3266 38.6519 38.3762 38.4633 38.4487C38.0718 38.5993 37.4343 38.965 37.3409 39.8121L38.3349 39.9216L39.3289 40.0311C39.3199 40.1131 39.2752 40.213 39.2018 40.2861C39.149 40.3387 39.1185 40.3396 39.1811 40.3155C39.2451 40.2909 39.3267 40.2686 39.4755 40.2299C39.5981 40.198 39.7962 40.1477 39.9825 40.0731L39.6105 39.1449ZM38.3349 39.9216L37.6301 40.631C37.5863 40.5875 37.5944 40.5618 37.6605 40.7366C37.7068 40.8591 37.8103 41.1709 37.9892 41.4531L38.8338 40.9177L39.6784 40.3824C39.6379 40.3184 39.6171 40.2565 39.5314 40.0296C39.4654 39.855 39.3337 39.5043 39.0397 39.2122L38.3349 39.9216ZM38.8338 40.9177L37.9728 41.4263C38.457 42.2462 39.0794 42.9761 39.8124 43.5839L40.4507 42.8141L41.089 42.0443C40.5335 41.5837 40.0618 41.0305 39.6948 40.4092L38.8338 40.9177ZM40.4507 42.8141L39.8431 43.6083C40.4883 44.1019 41.1731 44.625 41.9079 45.0883L42.4413 44.2425L42.9747 43.3966C42.3283 42.989 41.7131 42.5208 41.0583 42.0199L40.4507 42.8141ZM42.4413 44.2425L41.9151 45.0928C42.5817 45.5053 43.2842 45.8261 43.9147 46.1164C44.5648 46.4159 45.1422 46.6847 45.6672 47.0166L46.2015 46.1713L46.7359 45.3261C46.0812 44.9122 45.3837 44.5911 44.7513 44.2998C44.0993 43.9995 43.5115 43.7287 42.9675 43.3921L42.4413 44.2425ZM46.2015 46.1713L45.6654 47.0155C45.9757 47.2125 46.2928 47.4424 46.6344 47.6947C46.9669 47.9404 47.3292 48.2123 47.6918 48.4598L48.2555 47.6339L48.8192 46.8079C48.4961 46.5874 48.1743 46.3458 47.8227 46.0861C47.4802 45.833 47.1131 45.5657 46.7376 45.3272L46.2015 46.1713ZM48.2555 47.6339L47.6667 48.4421C47.7521 48.5043 47.7854 48.5545 48.0081 48.7781C48.1882 48.9589 48.475 49.2251 48.8988 49.3833L49.2484 48.4464L49.598 47.5094C49.5864 47.5051 49.5473 47.4893 49.4252 47.3667C49.395 47.3364 49.3644 47.3046 49.3261 47.2647C49.2901 47.2272 49.2465 47.1818 49.2009 47.1361C49.1098 47.0449 48.9903 46.9319 48.8444 46.8256L48.2555 47.6339ZM49.2484 48.4464H50.2484V48.3521H49.2484H48.2484V48.4464H49.2484ZM49.2484 48.3521L50.1861 48.0047C50.0377 47.604 49.8541 47.2173 49.6375 46.8491L48.7755 47.356L47.9135 47.8629C48.0703 48.1295 48.2032 48.4095 48.3107 48.6995L49.2484 48.3521ZM48.7755 47.356L49.4808 46.647C49.3157 46.4827 49.1513 46.3271 48.9969 46.1807C48.8398 46.0318 48.6925 45.8921 48.5464 45.7468L47.8412 46.4557L47.1359 47.1647C47.3018 47.3297 47.4665 47.4858 47.621 47.6322C47.7782 47.7812 47.9251 47.9205 48.0703 48.0649L48.7755 47.356ZM47.8412 46.4557L48.6388 45.8525C47.6657 44.5659 46.5016 43.4357 45.1868 42.5011L44.6074 43.3162L44.0281 44.1313C45.1766 44.9477 46.1936 45.935 47.0436 47.0589L47.8412 46.4557ZM44.6074 43.3162L45.1745 42.4925C44.8861 42.294 44.5257 42.0858 44.1848 41.8891C43.8292 41.6839 43.4733 41.4792 43.138 41.2635C42.8011 41.0466 42.517 40.8386 42.304 40.6391C42.0831 40.4322 42 40.2906 41.9754 40.221L41.0324 40.5537L40.0894 40.8865C40.2655 41.3855 40.6051 41.788 40.9365 42.0986C41.2759 42.4165 41.6736 42.6994 42.0557 42.9453C42.4395 43.1923 42.8399 43.4221 43.1852 43.6214C43.5453 43.8292 43.8307 43.9956 44.0404 44.1399L44.6074 43.3162ZM41.0324 40.5537L41.7395 39.8466L41.6761 39.7832L40.969 40.4903L40.262 41.1975L40.3253 41.2608L41.0324 40.5537ZM40.969 40.4903L41.1093 41.4805C41.8965 41.3689 42.6724 41.188 43.4277 40.9399L43.1157 39.9898L42.8036 39.0398C42.1602 39.2511 41.4993 39.4052 40.8287 39.5002L40.969 40.4903ZM43.1157 39.9898L43.3715 40.9566C43.8144 40.8394 44.2461 40.7913 44.7612 40.7377C45.2601 40.6857 45.8421 40.628 46.4649 40.4726L46.2227 39.5023L45.9805 38.5321C45.5161 38.648 45.0727 38.6944 44.554 38.7484C44.0514 38.8008 43.4732 38.8608 42.8599 39.0231L43.1157 39.9898ZM46.2227 39.5023L46.4659 40.4723C46.7513 40.4007 47.1298 40.2825 47.4183 40.189C47.5666 40.141 47.6985 40.0971 47.7934 40.0651C47.841 40.0492 47.8794 40.0361 47.9061 40.027C47.9195 40.0225 47.9299 40.0189 47.9371 40.0164C47.9408 40.0152 47.9436 40.0142 47.9455 40.0136C47.9465 40.0132 47.9473 40.013 47.9478 40.0128C47.9481 40.0127 47.9483 40.0126 47.9485 40.0125C47.9486 40.0125 47.9486 40.0125 47.9487 40.0125C47.9487 40.0125 47.9488 40.0124 47.9488 40.0124C47.9488 40.0124 47.9488 40.0124 47.6234 39.0668C47.298 38.1213 47.298 38.1213 47.298 38.1213L47.298 38.1213C47.298 38.1213 47.298 38.1213 47.298 38.1213C47.298 38.1213 47.2979 38.1213 47.2977 38.1214C47.2974 38.1215 47.2968 38.1217 47.2961 38.1219C47.2946 38.1224 47.2923 38.1232 47.2892 38.1243C47.283 38.1264 47.2735 38.1297 47.2613 38.1338C47.2367 38.1422 47.2008 38.1544 47.156 38.1695C47.0662 38.1996 46.9415 38.2411 46.802 38.2863C46.5148 38.3794 46.1929 38.4788 45.9794 38.5324L46.2227 39.5023ZM47.6234 39.0668H48.6234V38.5793H47.6234H46.6234V39.0668H47.6234ZM47.6234 38.5793L48.3284 37.8702C48.1113 37.6543 47.9198 37.3969 47.6616 37.0566C47.4225 36.7415 47.124 36.3529 46.7501 36.0195L46.0845 36.7659L45.419 37.5122C45.6301 37.7004 45.8231 37.9423 46.0683 38.2655C46.2943 38.5633 46.5798 38.9519 46.9184 39.2885L47.6234 38.5793ZM46.0845 36.7659L46.7422 36.0125C45.112 34.5895 43.3747 33.294 41.5457 32.1376L41.0113 32.9829L40.4769 33.8281C42.2192 34.9296 43.874 36.1637 45.4269 37.5192L46.0845 36.7659ZM41.0113 32.9829L41.5537 32.1427C41.0034 31.7874 40.3928 31.5072 39.8347 31.2636C39.2512 31.0089 38.7402 30.7998 38.2708 30.5572L37.8117 31.4456L37.3526 32.334C37.8988 32.6163 38.5106 32.8678 39.0346 33.0966C39.5839 33.3364 40.0653 33.5624 40.4689 33.823L41.0113 32.9829ZM37.8117 31.4456L38.262 30.5528C38.1092 30.4756 37.951 30.4177 37.8325 30.3761C37.6901 30.326 37.6118 30.3013 37.5093 30.2629C37.4171 30.2284 37.3696 30.2054 37.3473 30.1924C37.3235 30.1785 37.3706 30.2 37.4252 30.2757L36.614 30.8606L35.8029 31.4455C36.1098 31.8711 36.5921 32.0551 36.808 32.1359C36.9311 32.182 37.0876 32.2341 37.1693 32.2629C37.275 32.3 37.3306 32.3229 37.3613 32.3384L37.8117 31.4456ZM36.614 30.8606L37.4403 30.2974C36.9762 29.6164 36.5876 28.8868 36.2815 28.1216L35.353 28.493L34.4246 28.8643C34.7846 29.7645 35.2417 30.6227 35.7877 31.4238L36.614 30.8606ZM35.353 28.493L36.2377 28.0268C35.3637 26.368 34.5123 24.5202 33.7516 22.7475L32.8327 23.1418L31.9137 23.5362C32.687 25.3385 33.5614 27.2379 34.4683 28.9591L35.353 28.493ZM32.8327 23.1418L33.7678 22.7875C33.3 21.5531 32.7604 20.3472 32.152 19.1757L31.2645 19.6367L30.3771 20.0977C30.9497 21.2 31.4574 22.3347 31.8976 23.4962L32.8327 23.1418ZM31.2645 19.6367L32.1265 19.1297C29.1849 14.1285 24.9389 10.021 19.8428 7.24693L19.3647 8.12523L18.8866 9.00352C23.6642 11.6043 27.6448 15.455 30.4026 20.1437L31.2645 19.6367ZM19.3647 8.12523L19.8003 7.22513C18.4702 6.58127 17.0559 6.12796 15.5993 5.87857L15.4305 6.86423L15.2618 7.84988C16.5333 8.06759 17.7678 8.46329 18.929 9.02533L19.3647 8.12523ZM15.4305 6.86423L15.4727 5.86511C15.0978 5.8493 14.7227 5.82671 14.3361 5.80382C13.9528 5.78111 13.559 5.75815 13.1627 5.74307L13.1247 6.74235L13.0866 7.74163C13.459 7.7558 13.833 7.77753 14.2179 7.80032C14.5995 7.82293 14.993 7.84666 15.3884 7.86334L15.4305 6.86423ZM13.1247 6.74235L13.6727 5.90587C13.2169 5.60731 12.7835 5.27609 12.3756 4.91482L11.7125 5.66335L11.0494 6.41188C11.5296 6.83727 12.0401 7.22728 12.5767 7.57883L13.1247 6.74235ZM11.7125 5.66335L12.2474 4.81844C11.3428 4.24569 9.65629 3.29381 7.97395 2.91383C7.13177 2.72361 6.19021 2.65283 5.318 2.9336C4.39458 3.23087 3.64869 3.89155 3.21753 4.94725L4.14329 5.32535L5.06906 5.70345C5.28464 5.17559 5.58851 4.9476 5.93086 4.83739C6.32442 4.7107 6.86466 4.71366 7.53332 4.86469C8.87267 5.1672 10.3241 5.96788 11.1776 6.50826L11.7125 5.66335ZM4.14329 5.32535L3.21944 4.9426C2.62844 6.36911 3.11065 7.71263 3.67004 8.68458C3.95509 9.17986 4.28694 9.62681 4.57582 9.99708C4.88851 10.3979 5.10465 10.654 5.26114 10.8789L6.08192 10.3076L6.90269 9.73634C6.70574 9.45338 6.39925 9.08287 6.15268 8.76684C5.88231 8.42029 5.61829 8.06022 5.40345 7.68694C4.96306 6.92175 4.82939 6.28197 5.06714 5.7081L4.14329 5.32535ZM6.08192 10.3076L5.31331 10.9473C5.86798 11.6137 6.3567 12.3324 6.7726 13.0932L7.65004 12.6135L8.52749 12.1338C8.04955 11.2595 7.48793 10.4337 6.85052 9.66787L6.08192 10.3076ZM7.65004 12.6135L6.72578 12.9952C6.80237 13.1807 6.85641 13.3829 6.92656 13.6612C6.99184 13.9203 7.0736 14.2563 7.20362 14.596L8.13754 14.2385L9.07146 13.881C8.99186 13.673 8.93793 13.4582 8.8659 13.1724C8.79873 12.9059 8.71384 12.5695 8.5743 12.2317L7.65004 12.6135ZM8.13754 14.2385L7.18536 14.544C7.64874 15.9882 8.19895 17.403 8.83299 18.7808L9.74142 18.3627L10.6498 17.9447C10.0495 16.6401 9.52849 15.3004 9.08972 13.933L8.13754 14.2385ZM9.74142 18.3627L8.84627 18.8085C9.19908 19.517 9.60552 20.1975 10.062 20.844L10.8789 20.2672L11.6958 19.6904C11.2981 19.1271 10.944 18.5342 10.6366 17.917L9.74142 18.3627ZM10.8789 20.2672L10.072 20.8579C10.1924 21.0224 10.3229 21.1476 10.4147 21.2319C10.5308 21.3386 10.559 21.3593 10.6164 21.4165C10.6546 21.4546 10.6617 21.468 10.6608 21.4664C10.6572 21.4603 10.6594 21.4594 10.6625 21.4784L11.6492 21.3153L12.6358 21.1523C12.5443 20.5988 12.2705 20.2415 12.0287 20.0003C11.9361 19.908 11.8047 19.7931 11.7676 19.759C11.7061 19.7025 11.6897 19.6819 11.6858 19.6765L10.8789 20.2672ZM11.6492 21.3153L10.7425 20.8935C10.363 21.7092 10.0976 22.5732 9.95356 23.4612L10.9407 23.6212L11.9278 23.7813C12.0424 23.0743 12.2537 22.3865 12.5558 21.7372L11.6492 21.3153ZM10.9407 23.6212L9.98732 23.3193C9.41051 25.1409 9.19823 27.0583 9.36261 28.9619L10.3589 28.8759L11.3552 28.7898C11.2134 27.1479 11.3965 25.4942 11.894 23.9231L10.9407 23.6212ZM10.3589 28.8759L9.36261 28.9619C9.52698 30.8655 10.0648 32.7181 10.9453 34.4138L11.8328 33.953L12.7203 33.4921C11.9608 32.0296 11.497 30.4317 11.3552 28.7898L10.3589 28.8759ZM11.8328 33.953L10.9883 34.4886C11.2382 34.8826 11.7281 35.6226 12.4191 36.1728C13.1354 36.7431 14.2036 37.2021 15.4429 36.6909L15.0617 35.7665L14.6804 34.842C14.3516 34.9776 14.0492 34.9142 13.6649 34.6082C13.2554 34.2821 12.9149 33.792 12.6773 33.4174L11.8328 33.953ZM15.0617 35.7665L15.4327 36.6951C16.5896 36.2329 16.9753 35.2407 17.147 34.4188C17.2305 34.0188 17.2787 33.5845 17.3246 33.2204C17.3733 32.834 17.4227 32.4927 17.5049 32.1769L16.5372 31.925L15.5694 31.6731C15.4518 32.1251 15.3896 32.5788 15.3403 32.9703C15.2881 33.3841 15.2517 33.7107 15.1892 34.01C15.0687 34.5869 14.9166 34.7476 14.6907 34.8378L15.0617 35.7665ZM16.5372 31.925L17.5085 32.1625C17.5435 32.0197 17.5625 31.8942 17.5753 31.7938C17.5814 31.7457 17.5865 31.6991 17.5903 31.6658C17.5945 31.6289 17.5973 31.6052 17.6001 31.5852C17.6056 31.5454 17.6073 31.5507 17.5997 31.5731C17.5897 31.6021 17.5731 31.6351 17.5523 31.6629L16.7517 31.0637L15.951 30.4646C15.7137 30.7817 15.6489 31.0963 15.6193 31.3085C15.5858 31.5486 15.5958 31.5648 15.5658 31.6874L16.5372 31.925ZM16.7517 31.0637H15.7517V31.3627H16.7517H17.7517V31.0637H16.7517ZM16.7517 31.3627C15.8415 31.777 15.8415 31.777 15.8415 31.7771C15.8415 31.7771 15.8416 31.7771 15.8416 31.7771C15.8416 31.7772 15.8416 31.7772 15.8417 31.7773C15.8418 31.7775 15.8419 31.7779 15.8421 31.7783C15.8425 31.7791 15.843 31.7803 15.8438 31.782C15.8453 31.7852 15.8475 31.7901 15.8504 31.7965C15.8562 31.8093 15.8648 31.8282 15.8759 31.8526C15.8981 31.9013 15.9302 31.972 15.97 32.0595C16.0496 32.2346 16.1597 32.4772 16.282 32.7471C16.527 33.2876 16.8195 33.9349 17.013 34.3695L17.9265 33.9627L18.8401 33.556C18.6436 33.1147 18.3486 32.4619 18.1037 31.9215C17.981 31.6508 17.8706 31.4076 17.7908 31.2321C17.7509 31.1443 17.7187 31.0734 17.6964 31.0245C17.6853 31 17.6766 30.981 17.6708 30.9681C17.6678 30.9617 17.6656 30.9567 17.6641 30.9534C17.6633 30.9518 17.6628 30.9505 17.6624 30.9497C17.6622 30.9493 17.662 30.9489 17.6619 30.9487C17.6619 30.9486 17.6619 30.9485 17.6618 30.9485C17.6618 30.9485 17.6618 30.9484 17.6618 30.9484C17.6618 30.9484 17.6618 30.9484 16.7517 31.3627ZM17.9265 33.9627L17.0919 34.5135C18.2129 36.2121 19.6054 37.7149 21.2139 38.9618L21.8265 38.1715L22.4392 37.3811C21.004 36.2685 19.7614 34.9276 18.7612 33.4119L17.9265 33.9627ZM21.8265 38.1715L21.1689 38.9248C21.6654 39.3583 22.0654 39.8912 22.3431 40.489L23.25 40.0678L24.157 39.6467C23.7615 38.795 23.1916 38.0358 22.4842 37.4182L21.8265 38.1715ZM23.25 40.0678H22.25V40.6252H23.25H24.25V40.0678H23.25ZM23.25 40.6252V41.6252H23.9439V40.6252V39.6252H23.25V40.6252ZM23.9439 40.6252L24.9423 40.5678C24.9194 40.1698 24.809 39.7817 24.6191 39.4311L23.7399 39.9076L22.8607 40.384C22.9106 40.4761 22.9396 40.578 22.9456 40.6826L23.9439 40.6252ZM23.7399 39.9076L24.6191 39.4311C24.4291 39.0806 24.1642 38.7762 23.8433 38.5397L23.25 39.3447L22.6568 40.1498C22.7411 40.2119 22.8107 40.2919 22.8607 40.384L23.7399 39.9076ZM23.25 39.3447L23.9673 38.6479C23.4355 38.1006 22.9485 37.5115 22.5109 36.8863L21.6917 37.4597L20.8724 38.0331C21.3713 38.7459 21.9265 39.4175 22.5328 40.0416L23.25 39.3447ZM21.6917 37.4597L22.5101 36.8851C21.2694 35.1182 20.1753 33.2528 19.2387 31.3075L18.3377 31.7414L17.4367 32.1752C18.4206 34.2186 19.57 36.1782 20.8733 38.0344L21.6917 37.4597ZM18.3377 31.7414L19.2321 31.2941C18.768 30.3659 18.3759 29.3465 17.9773 28.3518L17.049 28.7237L16.1208 29.0957C16.5022 30.0477 16.9323 31.1668 17.4432 32.1886L18.3377 31.7414ZM17.049 28.7237L17.9519 28.2938C17.9457 28.2808 17.9306 28.2427 17.9055 28.1511C17.8935 28.107 17.8819 28.0614 17.8671 28.0033C17.8533 27.949 17.8364 27.8832 17.8177 27.8166C17.7634 27.6235 17.6141 27.0717 17.1139 26.7473L16.5697 27.5862L16.0255 28.4252C15.9105 28.3506 15.8648 28.2659 15.8595 28.2557C15.8565 28.2499 15.8682 28.2722 15.8924 28.3581C15.9036 28.398 15.9149 28.4416 15.929 28.4972C15.9423 28.5491 15.9587 28.6141 15.9765 28.679C16.0111 28.8054 16.063 28.979 16.1462 29.1537L17.049 28.7237ZM16.5697 27.5862L15.8059 26.9407C15.2038 27.6531 14.6813 28.4292 14.2478 29.255L15.1332 29.7198L16.0186 30.1847C16.3844 29.4877 16.8253 28.8329 17.3334 28.2317L16.5697 27.5862ZM15.1332 29.7198L14.1795 29.4191C13.6681 31.041 13.3704 32.7227 13.2941 34.4216L14.293 34.4665L15.292 34.5114C15.3606 32.9862 15.6278 31.4766 16.0869 30.0206L15.1332 29.7198ZM14.293 34.4665L14.0288 33.502C14.0224 33.5038 14.025 33.5029 14.0314 33.5016C14.0459 33.4986 14.0139 33.5051 13.998 33.5087C13.982 33.5123 13.885 33.533 13.7737 33.5871C13.6321 33.6561 13.5309 33.7458 13.4631 33.8212C13.4225 33.8663 13.3838 33.9201 13.4002 33.8982C13.4135 33.8803 13.431 33.8589 13.4485 33.8405L14.1744 34.5282L14.9004 35.216C14.9471 35.1666 14.9792 35.1261 15.0017 35.096C15.0076 35.0882 15.0015 35.0963 14.9977 35.1014C14.9926 35.108 14.9749 35.1311 14.9497 35.1591C14.9225 35.1893 14.8817 35.2309 14.8266 35.2742C14.7695 35.319 14.7096 35.356 14.6487 35.3856C14.5412 35.4379 14.4488 35.4572 14.4396 35.4593C14.4305 35.4614 14.4074 35.4661 14.4339 35.4607C14.4646 35.4544 14.5043 35.4454 14.5573 35.4309L14.293 34.4665ZM14.1744 34.5282L14.4289 33.5611C14.2864 33.5236 14.147 33.429 13.9775 33.1548C13.7866 32.8459 13.6576 32.4846 13.4516 31.9835L12.5267 32.3637L11.6018 32.744C11.7565 33.1204 11.9728 33.7153 12.2763 34.2063C12.6012 34.7321 13.1053 35.2809 13.9199 35.4953L14.1744 34.5282ZM12.5267 32.3637L13.4722 32.0381C12.6058 29.522 12.5184 26.803 13.2214 24.2364L12.2569 23.9722L11.2924 23.708C10.4831 26.6627 10.5837 29.7927 11.5812 32.6893L12.5267 32.3637ZM12.2569 23.9722L13.2104 24.2736C13.2537 24.1366 13.3353 23.9206 13.452 23.6004C13.5615 23.2999 13.6902 22.9384 13.8016 22.5717C13.9111 22.2111 14.0151 21.8103 14.0625 21.435C14.1025 21.1187 14.1395 20.578 13.8735 20.1141L13.006 20.6117L12.1386 21.1093C12.0529 20.9599 12.1125 20.9142 12.0783 21.1841C12.0516 21.3951 11.9848 21.6716 11.8879 21.9903C11.793 22.3028 11.6797 22.6225 11.5729 22.9155C11.4733 23.1888 11.3641 23.4788 11.3034 23.6709L12.2569 23.9722ZM13.006 20.6117L13.9637 20.3237C13.8011 19.7832 13.4619 19.4039 13.2247 19.1597C12.9324 18.8588 12.8209 18.7725 12.7193 18.6261L11.8978 19.1964L11.0763 19.7666C11.2047 19.9515 11.3479 20.1074 11.4677 20.2304C11.5281 20.2924 11.5892 20.3527 11.6421 20.405C11.6973 20.4596 11.7448 20.5067 11.7901 20.5533C11.9798 20.7486 12.0306 20.8406 12.0484 20.8998L13.006 20.6117ZM11.8978 19.1964L12.7329 18.6463C12.347 18.0605 12.015 17.441 11.7409 16.7954L10.8204 17.1862L9.89996 17.5771C10.2213 18.3338 10.6104 19.0599 11.0627 19.7464L11.8978 19.1964ZM10.8204 17.1862L11.7463 16.8085C11.412 15.9891 11.1582 15.1173 10.877 14.1751C10.6016 13.2523 10.3014 12.2682 9.88453 11.3228L8.96954 11.7262L8.05455 12.1297C8.4144 12.9458 8.68302 13.8174 8.96051 14.7471C9.23222 15.6574 9.51541 16.6348 9.89451 17.564L10.8204 17.1862ZM8.96954 11.7262L9.86126 11.2736C9.40584 10.3763 8.87557 9.51903 8.27608 8.71084L7.47292 9.3066L6.66975 9.90236C7.20226 10.6203 7.67329 11.3818 8.07782 12.1788L8.96954 11.7262ZM7.47292 9.3066L8.24566 8.67188C7.65976 7.95858 7.14295 7.19125 6.70217 6.38021L5.82354 6.85773L4.94492 7.33524C5.44617 8.25755 6.0339 9.13016 6.70017 9.94132L7.47292 9.3066ZM5.82354 6.85773L6.74157 6.46121C6.67332 6.30319 6.6224 6.16269 6.60231 6.04983C6.59298 5.99735 6.59558 5.97788 6.5949 5.98439C6.59384 5.99458 6.5865 6.04356 6.548 6.10433L5.70329 5.5691L4.85858 5.03388C4.54426 5.52995 4.57356 6.06473 4.63324 6.40016C4.69563 6.75082 4.82427 7.06613 4.90551 7.25424L5.82354 6.85773ZM5.70329 5.5691L6.69165 5.72125C6.6747 5.83135 6.62234 5.93292 6.54251 6.0106L5.84515 5.29387L5.1478 4.57715C4.91608 4.8026 4.76413 5.09741 4.71493 5.41695L5.70329 5.5691ZM5.84515 5.29387L6.54251 6.0106C6.46268 6.08827 6.35971 6.13783 6.24919 6.15175L6.12417 5.1596L5.99914 4.16745C5.67838 4.20787 5.37952 4.35169 5.1478 4.57715L5.84515 5.29387ZM6.12417 5.1596L6.78931 5.90632C6.63144 6.04694 6.49364 6.03318 6.55378 6.03158C6.59613 6.03046 6.68839 6.03873 6.83185 6.07329C7.11562 6.14165 7.42054 6.26822 7.57252 6.34199L8.00917 5.44235L8.44581 4.54272C8.20942 4.42798 7.76521 4.24093 7.30027 4.12891C7.06937 4.07329 6.78736 4.02468 6.5007 4.03229C6.23183 4.03943 5.81026 4.10002 5.45902 4.41288L6.12417 5.1596ZM8.00917 5.44235L7.64285 6.37284C8.61686 6.75628 9.54461 7.24814 10.4086 7.83911L10.9732 7.01373L11.5377 6.18834C10.5499 5.51264 9.48912 4.95027 8.37548 4.51186L8.00917 5.44235ZM10.9732 7.01373L10.3722 7.81298C10.5685 7.96061 10.9093 8.23002 11.2104 8.4702C11.3588 8.58867 11.4944 8.69746 11.5929 8.77664C11.6422 8.81622 11.6821 8.84836 11.7096 8.87056C11.7234 8.88166 11.7341 8.89028 11.7413 8.8961C11.7449 8.89901 11.7476 8.90122 11.7495 8.90269C11.7504 8.90342 11.7511 8.90397 11.7515 8.90433C11.7517 8.90451 11.7519 8.90464 11.752 8.90473C11.7521 8.90477 11.7521 8.9048 11.7521 8.90482C11.7521 8.90483 11.7521 8.90483 11.7521 8.90484C11.7521 8.90484 11.7521 8.90484 12.3804 8.12685C13.0087 7.34886 13.0087 7.34885 13.0087 7.34884C13.0087 7.34884 13.0086 7.34882 13.0086 7.34881C13.0086 7.34878 13.0085 7.34874 13.0085 7.34868C13.0083 7.34857 13.0081 7.34842 13.0079 7.34821C13.0074 7.3478 13.0066 7.3472 13.0057 7.34642C13.0037 7.34485 13.0009 7.34254 12.9971 7.33953C12.9897 7.3335 12.9787 7.32467 12.9647 7.31334C12.9365 7.29068 12.896 7.25802 12.846 7.21787C12.7462 7.13761 12.6086 7.02722 12.4577 6.90681C12.1599 6.66925 11.7971 6.38209 11.5742 6.21447L10.9732 7.01373ZM12.3804 8.12685V9.12685H12.6729V8.12685V7.12685H12.3804V8.12685ZM12.6729 8.12685L12.4606 9.10404C13.06 9.23432 13.6873 9.25044 14.1747 9.27211C14.7057 9.29572 15.1008 9.32585 15.4338 9.42584L15.7214 8.4681L16.0091 7.51037C15.406 7.32923 14.7741 7.29679 14.2635 7.27409C13.7093 7.24945 13.2803 7.2355 12.8853 7.14966L12.6729 8.12685ZM15.7214 8.4681L15.4052 9.41678C16.902 9.91573 18.3304 10.6001 19.6571 11.454L20.1983 10.6131L20.7395 9.7722C19.2724 8.82798 17.6928 8.07117 16.0377 7.51942L15.7214 8.4681ZM20.1983 10.6131L19.6608 11.4563C23.6288 13.9858 26.8546 17.5229 29.0089 21.7065L29.8979 21.2487L30.787 20.7909C28.4707 16.2927 25.0023 12.4896 20.7358 9.76986L20.1983 10.6131ZM29.8979 21.2487L29.0121 21.7128C29.168 22.0103 29.2828 22.3026 29.4093 22.6423C29.532 22.9719 29.6718 23.3641 29.8615 23.778L30.7705 23.3612L31.6795 22.9444C31.5281 22.6141 31.4184 22.3068 31.2836 21.9445C31.1525 21.5924 31.0016 21.2005 30.7837 20.7846L29.8979 21.2487ZM30.7705 23.3612L29.8504 23.7528C30.1848 24.5387 30.5591 25.3286 30.9242 26.0939C31.2924 26.866 31.6499 27.6105 31.9669 28.3349L32.883 27.934L33.7992 27.5331C33.4662 26.7722 33.0924 25.9941 32.7294 25.233C32.3632 24.4651 32.0062 23.7112 31.6907 22.9697L30.7705 23.3612ZM32.883 27.934L31.9515 28.2975C32.5529 29.8389 33.3308 31.3054 34.2696 32.6679L35.093 32.1005L35.9165 31.5331C35.0653 30.2977 34.36 28.968 33.8146 27.5704L32.883 27.934ZM35.093 32.1005L34.2796 32.6821C34.5374 33.0427 34.9155 33.2752 35.213 33.4266C35.532 33.589 35.8897 33.722 36.222 33.8328C36.5551 33.9439 36.903 34.0455 37.1921 34.1325C37.4986 34.2248 37.7288 34.2977 37.8887 34.3627L38.265 33.4362L38.6414 32.5097C38.3813 32.4041 38.0629 32.306 37.7686 32.2174C37.4568 32.1235 37.1513 32.0344 36.8546 31.9355C36.557 31.8362 36.3082 31.7399 36.1202 31.6442C35.9106 31.5376 35.881 31.4832 35.9065 31.5189L35.093 32.1005ZM38.265 33.4362L37.9381 34.3813C38.6349 34.6223 39.3187 34.8995 39.9867 35.2116L40.41 34.3056L40.8333 33.3996C40.1025 33.0581 39.3543 32.7549 38.592 32.4912L38.265 33.4362ZM40.41 34.3056L39.8865 35.1576C40.9103 35.7867 41.9382 36.5162 42.9364 37.2311L43.5187 36.4181L44.1009 35.6051C43.1069 34.8932 42.0255 34.1245 40.9336 33.4536L40.41 34.3056ZM43.5187 36.4181L42.9166 37.2165C43.0847 37.3433 43.3206 37.4893 43.5211 37.6141C43.7417 37.7515 43.9654 37.8908 44.1743 38.0347C44.3874 38.1816 44.5489 38.309 44.6526 38.4124C44.7865 38.5458 44.7017 38.5176 44.6749 38.3407L45.6637 38.191L46.6524 38.0412C46.5785 37.5531 46.2639 37.1945 46.0643 36.9956C45.8344 36.7666 45.5584 36.5597 45.3091 36.3879C45.0554 36.2131 44.7915 36.0492 44.5783 35.9164C44.3448 35.771 44.2004 35.6798 44.1208 35.6197L43.5187 36.4181Z" fill="#00758F" mask="url(#path-3-outside-2_918_1752)"/>
</svg>
