<svg width="53" height="52" viewBox="0 0 53 52" fill="none" xmlns="http://www.w3.org/2000/svg">
<path d="M5.875 16.3574C5.86481 15.3018 6.51089 14.2601 7.48047 13.75L7.48828 13.7451C13.2711 10.5558 19.0533 7.36356 24.835 4.17285L24.8379 4.17188C25.8413 3.61056 27.1597 3.60835 28.1602 4.1709L28.1641 4.17285L45.5732 13.7832C46.5133 14.3007 47.1344 15.3236 47.125 16.3574V35.6436C47.1318 36.7169 46.4508 37.768 45.4521 38.2773L45.4385 38.2852C39.6553 41.4716 33.8725 44.6624 28.0908 47.8486L28.0879 47.8506C27.0719 48.418 25.733 48.3755 24.7432 47.7578L24.7344 47.752L24.7246 47.7471L19.5244 44.8086H19.5254C19.4016 44.7365 19.2973 44.6751 19.2109 44.6211C19.2648 44.5978 19.3244 44.5706 19.3916 44.5439C20.1693 44.236 20.8114 43.9448 21.4941 43.585L21.499 43.582C21.5081 43.5857 21.5194 43.5912 21.5312 43.5986L21.5508 43.6104C23.0193 44.4332 24.5088 45.299 25.9932 46.1201V46.1191C26.2766 46.2779 26.559 46.2668 26.7842 46.2031C26.9893 46.1451 27.1751 46.0349 27.2871 45.9707C32.9407 42.7264 38.7002 39.6818 44.4209 36.5205L44.4199 36.5186C44.799 36.3258 45.0031 35.9362 44.9873 35.541H44.9883C44.9922 29.1845 44.9883 22.8265 44.9893 16.4707C45.0169 16.0119 44.7498 15.6157 44.3672 15.4287L44.3682 15.4277C38.6044 12.2556 32.8443 9.07948 27.0811 5.90625L27.0801 5.90723C26.728 5.69123 26.2712 5.69054 25.9189 5.90625V5.90527C20.1553 9.07968 14.3968 12.2586 8.63379 15.4307V15.4316C8.27775 15.6064 7.99753 15.972 8.00684 16.4209L8.00977 16.4609C8.01076 22.8205 8.00977 29.1813 8.00977 35.542H8.01172C7.99391 35.9366 8.21005 36.3071 8.55078 36.4951L8.55176 36.4971H8.55273C8.55347 36.4975 8.55443 36.4982 8.55566 36.499C8.5586 36.5009 8.56284 36.5043 8.56836 36.5078C8.5795 36.515 8.59599 36.5255 8.61719 36.5391C8.65954 36.5661 8.72165 36.6049 8.80078 36.6543C8.95924 36.7533 9.18751 36.8936 9.4668 37.0596C10.0246 37.391 10.7909 37.8269 11.6211 38.2422C12.4485 38.6561 13.3536 39.0576 14.1865 39.3115C14.9887 39.5561 15.8399 39.7027 16.4912 39.4746C17.5299 39.1105 18.2589 38.0839 18.2432 36.9922H18.2441C18.2521 30.6669 18.2391 24.3592 18.249 18.0371L18.2588 18.0381H18.2832C19.0198 18.0332 19.7513 18.0277 20.4805 18.0391C20.4813 18.0409 20.4828 18.0428 20.4834 18.0449C20.4842 18.0478 20.4853 18.0497 20.4854 18.0508L20.4805 18.084V18.1182C20.4775 24.4824 20.4886 30.843 20.4756 37.2051V37.207C20.4774 38.7929 19.8092 40.4177 18.4307 41.1309C16.6252 42.0435 14.3519 41.8641 12.5059 40.957L12.5049 40.9561L11.877 40.6416C10.4247 39.8969 9.04036 39.0726 7.55469 38.2822L7.54492 38.2773L7.36133 38.1758C6.46415 37.6397 5.8686 36.6503 5.875 35.6436V16.3574Z" stroke="#8CC84B"/>
<path d="M29.686 17.5874C32.1902 17.4308 34.7615 17.5095 36.895 18.6509L36.897 18.6519C38.4255 19.4615 39.3169 21.1628 39.3862 22.8804C39.3736 22.8831 39.3617 22.8849 39.3521 22.8843L39.3354 22.8823H39.3179C38.5751 22.8813 37.8574 22.8929 37.1313 22.8784L37.1274 22.8774C37.1221 22.8698 37.1136 22.8589 37.1069 22.8433C37.0975 22.8211 37.0902 22.7956 37.0864 22.77L37.0835 22.7495L37.0796 22.729L37.0317 22.5415C36.7756 21.6011 36.2105 20.6347 35.2173 20.1372L35.2124 20.1353C34.1675 19.6241 32.6679 19.3405 31.2065 19.3384C29.7539 19.3363 28.2337 19.6123 27.189 20.3198C26.2648 20.9384 26.0271 22.138 26.3306 23.063L26.3374 23.0845L26.3462 23.105C26.7689 24.0864 27.829 24.4644 28.8511 24.6528C29.8884 24.844 31.1682 24.8819 32.2192 24.9819C33.7215 25.125 35.6668 25.4295 37.2925 25.9868L37.2954 25.9878C38.3906 26.3577 39.3655 27.0239 39.772 27.9692L39.8452 28.1626C40.3525 29.7205 40.114 31.5438 39.0269 32.7427L39.0249 32.7456C38.1242 33.7534 36.783 34.3291 35.3784 34.6489C33.749 35.0033 32.055 35.0578 30.3657 34.9429L29.6411 34.8833C27.9796 34.6972 26.3047 34.1862 25.0767 33.2778C23.88 32.3926 23.1011 31.1295 23.1519 29.3521L23.1733 29.354H23.1958C23.9312 29.3482 24.6647 29.3463 25.397 29.355H25.4175L25.4214 29.354C25.4228 29.3562 25.4248 29.3586 25.4263 29.3618C25.4294 29.3689 25.4308 29.3759 25.4312 29.3813L25.4321 29.4067L25.436 29.4312C25.5795 30.3486 25.9479 31.4362 26.8999 32.0688L26.9106 32.0747C27.4623 32.4225 28.2252 32.6801 29.0591 32.854C29.901 33.0296 30.8503 33.1279 31.7964 33.1372C32.742 33.1465 33.6986 33.0671 34.5522 32.8823C35.3979 32.6993 36.184 32.4041 36.7544 31.9526L36.7612 31.9468L36.769 31.9399C37.5555 31.2668 37.7541 30.1838 37.5601 29.3003L37.5571 29.2866L37.5532 29.272L37.4956 29.104C37.3429 28.7256 37.0673 28.4557 36.7798 28.2632C36.4563 28.0467 36.0867 27.9075 35.7837 27.8071L35.7749 27.8042L35.2153 27.645C33.9048 27.3047 32.5639 27.1673 31.2681 27.0327C29.6255 26.862 28.0527 26.696 26.564 26.1704L26.561 26.1694L26.3491 26.0913C25.3691 25.7123 24.5145 25.089 24.1089 24.2339L24.0288 24.0474C23.4411 22.4873 23.7265 20.5896 24.9194 19.439L24.9233 19.4351C26.1276 18.2502 27.9024 17.7639 29.686 17.5874Z" stroke="#8CC84B"/>
</svg>
