<svg width="53" height="52" viewBox="0 0 53 52" fill="none" xmlns="http://www.w3.org/2000/svg">
<g clip-path="url(#clip0_918_1773)">
<mask id="path-1-inside-1_918_1773" fill="white">
<path d="M48.7775 21.279C49.3589 19.5281 49.56 17.6732 49.3673 15.8384C49.1746 14.0035 48.5926 12.2309 47.6601 10.6389C46.2777 8.23269 44.1669 6.3276 41.632 5.19834C39.097 4.06908 36.269 3.77398 33.5555 4.3556C32.014 2.64082 30.0483 1.36185 27.856 0.647156C25.6637 -0.0675386 23.322 -0.192801 21.066 0.28395C18.8099 0.760701 16.7191 1.82268 15.0034 3.36323C13.2877 4.90377 12.0075 6.86865 11.2915 9.06051C9.48381 9.4312 7.77602 10.1835 6.28231 11.267C4.7886 12.3506 3.54338 13.7405 2.62985 15.3438C1.23242 17.7461 0.635171 20.5305 0.924443 23.2945C1.21371 26.0585 2.37452 28.659 4.23903 30.7198C3.65547 32.4699 3.45236 34.3244 3.6433 36.1593C3.83424 37.9942 4.41482 39.7672 5.3462 41.3597C6.73035 43.7668 8.84302 45.6723 11.3797 46.8016C13.9164 47.9308 16.7462 48.2255 19.4612 47.6432C20.6859 49.0224 22.1908 50.1244 23.8753 50.8757C25.5599 51.627 27.3853 52.0103 29.2298 51.9999C32.011 52.0025 34.7211 51.1212 36.9688 49.4833C39.2166 47.8454 40.8858 45.5356 41.7354 42.8874C43.5429 42.516 45.2504 41.7635 46.744 40.68C48.2377 39.5964 49.483 38.2068 50.397 36.6038C51.778 34.2051 52.3649 31.4312 52.074 28.6787C51.7831 25.9262 50.6293 23.3361 48.7775 21.279ZM29.2298 48.5965C26.952 48.6001 24.7457 47.8018 22.9976 46.3415L23.305 46.1673L33.658 40.1912C33.9157 40.0401 34.1296 39.8245 34.2788 39.5657C34.428 39.3069 34.5073 39.0137 34.5089 38.715V24.1184L38.8855 26.6504C38.9072 26.6613 38.9259 26.6773 38.9402 26.6968C38.9545 26.7164 38.964 26.7391 38.9679 26.763V38.8587C38.9624 41.4397 37.9346 43.9134 36.1096 45.7384C34.2845 47.5634 31.8108 48.5911 29.2298 48.5965ZM8.29828 39.6582C7.15595 37.6857 6.7458 35.3735 7.13998 33.1285L7.44765 33.3131L17.8108 39.2892C18.0672 39.4397 18.3592 39.519 18.6565 39.519C18.9538 39.519 19.2457 39.4397 19.5021 39.2892L32.1615 31.9908V37.0443C32.1603 37.0705 32.1532 37.0961 32.1408 37.1192C32.1283 37.1422 32.1108 37.1622 32.0896 37.1776L21.6033 43.2254C19.3655 44.5146 16.7074 44.863 14.2129 44.1942C11.7183 43.5254 9.59109 41.894 8.29828 39.6582ZM5.57175 17.1071C6.72199 15.1219 8.53755 13.6078 10.697 12.8327V25.1333C10.6931 25.4304 10.769 25.7232 10.9169 25.981C11.0647 26.2389 11.279 26.4523 11.5374 26.599L24.1353 33.8667L19.7584 36.3984C19.7347 36.411 19.7083 36.4176 19.6815 36.4176C19.6547 36.4176 19.6283 36.411 19.6046 36.3984L9.13895 30.361C6.90525 29.0662 5.27567 26.9391 4.60707 24.4453C3.93848 21.9516 4.28536 19.2945 5.57175 17.0559V17.1071ZM41.5304 25.4613L28.8916 18.1219L33.2583 15.5999C33.282 15.5874 33.3084 15.5808 33.3352 15.5808C33.362 15.5808 33.3884 15.5874 33.4121 15.5999L43.8778 21.6478C45.478 22.5711 46.7825 23.9306 47.639 25.5675C48.4955 27.2044 48.8688 29.0512 48.7151 30.8923C48.5614 32.7334 47.8872 34.4927 46.7711 35.965C45.655 37.4372 44.1431 38.5616 42.412 39.2069V26.9063C42.4029 26.6096 42.3169 26.3204 42.1623 26.067C42.0077 25.8137 41.7901 25.6051 41.5304 25.4613ZM45.8869 18.9113L45.5792 18.7267L35.2367 12.6994C34.9787 12.548 34.685 12.4682 34.3858 12.4682C34.0867 12.4682 33.793 12.548 33.535 12.6994L20.8862 19.9976V14.9443C20.8835 14.9186 20.8878 14.8927 20.8986 14.8692C20.9094 14.8458 20.9264 14.8257 20.9477 14.8111L31.4134 8.77343C33.0174 7.84938 34.8513 7.40114 36.7007 7.48114C38.5501 7.56113 40.3385 8.16605 41.8568 9.22514C43.375 10.2842 44.5603 11.7537 45.274 13.4617C45.9878 15.1697 46.2004 17.0457 45.8871 18.8701L45.8869 18.9113ZM18.4974 27.8698L14.1208 25.3482C14.0989 25.335 14.0801 25.3172 14.0659 25.296C14.0517 25.2747 14.0423 25.2506 14.0384 25.2254V13.1607C14.0408 11.3099 14.5701 9.498 15.5643 7.93688C16.5585 6.37576 17.9766 5.12993 19.6528 4.34506C21.329 3.56019 23.1939 3.26871 25.0296 3.5047C26.8654 3.74069 28.596 4.4944 30.0191 5.6777L29.7114 5.85211L19.3587 11.8278C19.101 11.9789 18.8871 12.1945 18.7379 12.4533C18.5887 12.7121 18.5094 13.0052 18.5078 13.3039L18.4974 27.8698ZM20.8756 22.7447L26.5132 19.4952L32.1615 22.7447V29.2434L26.5338 32.4928L20.886 29.2434L20.8756 22.7447Z"/>
</mask>
<path d="M48.7775 21.279C49.3589 19.5281 49.56 17.6732 49.3673 15.8384C49.1746 14.0035 48.5926 12.2309 47.6601 10.6389C46.2777 8.23269 44.1669 6.3276 41.632 5.19834C39.097 4.06908 36.269 3.77398 33.5555 4.3556C32.014 2.64082 30.0483 1.36185 27.856 0.647156C25.6637 -0.0675386 23.322 -0.192801 21.066 0.28395C18.8099 0.760701 16.7191 1.82268 15.0034 3.36323C13.2877 4.90377 12.0075 6.86865 11.2915 9.06051C9.48381 9.4312 7.77602 10.1835 6.28231 11.267C4.7886 12.3506 3.54338 13.7405 2.62985 15.3438C1.23242 17.7461 0.635171 20.5305 0.924443 23.2945C1.21371 26.0585 2.37452 28.659 4.23903 30.7198C3.65547 32.4699 3.45236 34.3244 3.6433 36.1593C3.83424 37.9942 4.41482 39.7672 5.3462 41.3597C6.73035 43.7668 8.84302 45.6723 11.3797 46.8016C13.9164 47.9308 16.7462 48.2255 19.4612 47.6432C20.6859 49.0224 22.1908 50.1244 23.8753 50.8757C25.5599 51.627 27.3853 52.0103 29.2298 51.9999C32.011 52.0025 34.7211 51.1212 36.9688 49.4833C39.2166 47.8454 40.8858 45.5356 41.7354 42.8874C43.5429 42.516 45.2504 41.7635 46.744 40.68C48.2377 39.5964 49.483 38.2068 50.397 36.6038C51.778 34.2051 52.3649 31.4312 52.074 28.6787C51.7831 25.9262 50.6293 23.3361 48.7775 21.279ZM29.2298 48.5965C26.952 48.6001 24.7457 47.8018 22.9976 46.3415L23.305 46.1673L33.658 40.1912C33.9157 40.0401 34.1296 39.8245 34.2788 39.5657C34.428 39.3069 34.5073 39.0137 34.5089 38.715V24.1184L38.8855 26.6504C38.9072 26.6613 38.9259 26.6773 38.9402 26.6968C38.9545 26.7164 38.964 26.7391 38.9679 26.763V38.8587C38.9624 41.4397 37.9346 43.9134 36.1096 45.7384C34.2845 47.5634 31.8108 48.5911 29.2298 48.5965ZM8.29828 39.6582C7.15595 37.6857 6.7458 35.3735 7.13998 33.1285L7.44765 33.3131L17.8108 39.2892C18.0672 39.4397 18.3592 39.519 18.6565 39.519C18.9538 39.519 19.2457 39.4397 19.5021 39.2892L32.1615 31.9908V37.0443C32.1603 37.0705 32.1532 37.0961 32.1408 37.1192C32.1283 37.1422 32.1108 37.1622 32.0896 37.1776L21.6033 43.2254C19.3655 44.5146 16.7074 44.863 14.2129 44.1942C11.7183 43.5254 9.59109 41.894 8.29828 39.6582ZM5.57175 17.1071C6.72199 15.1219 8.53755 13.6078 10.697 12.8327V25.1333C10.6931 25.4304 10.769 25.7232 10.9169 25.981C11.0647 26.2389 11.279 26.4523 11.5374 26.599L24.1353 33.8667L19.7584 36.3984C19.7347 36.411 19.7083 36.4176 19.6815 36.4176C19.6547 36.4176 19.6283 36.411 19.6046 36.3984L9.13895 30.361C6.90525 29.0662 5.27567 26.9391 4.60707 24.4453C3.93848 21.9516 4.28536 19.2945 5.57175 17.0559V17.1071ZM41.5304 25.4613L28.8916 18.1219L33.2583 15.5999C33.282 15.5874 33.3084 15.5808 33.3352 15.5808C33.362 15.5808 33.3884 15.5874 33.4121 15.5999L43.8778 21.6478C45.478 22.5711 46.7825 23.9306 47.639 25.5675C48.4955 27.2044 48.8688 29.0512 48.7151 30.8923C48.5614 32.7334 47.8872 34.4927 46.7711 35.965C45.655 37.4372 44.1431 38.5616 42.412 39.2069V26.9063C42.4029 26.6096 42.3169 26.3204 42.1623 26.067C42.0077 25.8137 41.7901 25.6051 41.5304 25.4613ZM45.8869 18.9113L45.5792 18.7267L35.2367 12.6994C34.9787 12.548 34.685 12.4682 34.3858 12.4682C34.0867 12.4682 33.793 12.548 33.535 12.6994L20.8862 19.9976V14.9443C20.8835 14.9186 20.8878 14.8927 20.8986 14.8692C20.9094 14.8458 20.9264 14.8257 20.9477 14.8111L31.4134 8.77343C33.0174 7.84938 34.8513 7.40114 36.7007 7.48114C38.5501 7.56113 40.3385 8.16605 41.8568 9.22514C43.375 10.2842 44.5603 11.7537 45.274 13.4617C45.9878 15.1697 46.2004 17.0457 45.8871 18.8701L45.8869 18.9113ZM18.4974 27.8698L14.1208 25.3482C14.0989 25.335 14.0801 25.3172 14.0659 25.296C14.0517 25.2747 14.0423 25.2506 14.0384 25.2254V13.1607C14.0408 11.3099 14.5701 9.498 15.5643 7.93688C16.5585 6.37576 17.9766 5.12993 19.6528 4.34506C21.329 3.56019 23.1939 3.26871 25.0296 3.5047C26.8654 3.74069 28.596 4.4944 30.0191 5.6777L29.7114 5.85211L19.3587 11.8278C19.101 11.9789 18.8871 12.1945 18.7379 12.4533C18.5887 12.7121 18.5094 13.0052 18.5078 13.3039L18.4974 27.8698ZM20.8756 22.7447L26.5132 19.4952L32.1615 22.7447V29.2434L26.5338 32.4928L20.886 29.2434L20.8756 22.7447Z" stroke="black" stroke-width="2" mask="url(#path-1-inside-1_918_1773)"/>
</g>
<defs>
<clipPath id="clip0_918_1773">
<rect width="52" height="52" fill="white" transform="translate(0.5)"/>
</clipPath>
</defs>
</svg>
