<svg width="53" height="52" viewBox="0 0 53 52" fill="none" xmlns="http://www.w3.org/2000/svg">
<path d="M21.6514 3.75H31.3486C34.6578 3.75015 37.3122 6.34341 37.3125 9.50879V20.1016C37.3125 22.7353 35.103 24.8984 32.3428 24.8984H20.4082C16.5773 24.8986 13.4445 27.9094 13.4443 31.6572V36.4541H10.2148C6.90541 36.4541 4.25 33.86 4.25 30.6943V21.3057C4.25 18.14 6.90542 15.5459 10.2148 15.5459H26.876V13.3428H15.6875V9.50879C15.6878 6.34342 18.3422 3.75015 21.6514 3.75ZM20.1602 6.12012C18.6634 6.12012 17.4219 7.29927 17.4219 8.78711C17.4219 10.2749 18.6634 11.4541 20.1602 11.4541C21.6567 11.454 22.8974 10.2748 22.8975 8.78711C22.8975 7.29937 21.6567 6.12025 20.1602 6.12012Z" stroke="#2472B2"/>
<path d="M42.7855 15.5464C46.0947 15.5465 48.7492 18.1398 48.7494 21.3052V30.6948C48.7492 33.8603 46.0947 36.4535 42.7855 36.4536H26.1244V38.6577H37.3129V42.4907C37.3129 45.6563 34.6575 48.2505 31.348 48.2505H21.6517C18.3424 48.2505 15.6869 45.6564 15.6869 42.4907V31.8979C15.687 29.2643 17.8966 27.1022 20.6566 27.1021H32.5912C36.4221 27.1021 39.556 24.0905 39.556 20.3423V15.5464H42.7855ZM32.8402 40.5464C31.3434 40.5464 30.1019 41.7255 30.1019 43.2134C30.1021 44.7011 31.3436 45.8794 32.8402 45.8794C34.3366 45.8792 35.5773 44.701 35.5775 43.2134C35.5775 41.7256 34.3367 40.5465 32.8402 40.5464Z" stroke="#FCD025"/>
</svg>
