<svg width="39" height="36" viewBox="0 0 39 36" fill="none" xmlns="http://www.w3.org/2000/svg">
<path d="M19.5011 14.8252C21.2342 14.8254 22.6388 16.2307 22.6388 17.9639C22.6386 19.6969 21.2341 21.1014 19.5011 21.1016C17.7679 21.1016 16.3626 19.697 16.3624 17.9639C16.3624 16.2306 17.7678 14.8252 19.5011 14.8252Z" stroke="#00D8FF"/>
<path d="M16.9795 25.2832C17.7637 25.3103 18.5461 25.3244 19.3233 25.3271C20.2216 25.3304 21.1274 25.3179 22.0352 25.2842C20.3514 25.377 18.6622 25.3731 16.9795 25.2832ZM36.6416 21.1953C35.9531 21.7789 35.1434 22.275 34.2442 22.6982C33.6824 22.9626 33.089 23.1945 32.4766 23.4053C33.19 23.1306 33.8911 22.8205 34.5752 22.4668H34.5762C35.2587 22.1136 35.9909 21.6889 36.6416 21.1953ZM1.38089 15.874C0.700064 16.6963 0.364398 17.8976 0.705109 18.9941C0.546087 18.6015 0.471114 18.1958 0.510773 17.7842C0.580229 17.0668 0.900837 16.4379 1.38089 15.874ZM1.47952 15.7578C1.52341 15.7093 1.57004 15.6628 1.61624 15.6152C1.57047 15.663 1.52341 15.7092 1.47952 15.7578ZM24.3301 10.9463C28.4731 11.2329 32.5113 12.0375 35.7325 14.2676L35.544 14.1514L35.0362 13.8604C34.8658 13.7671 34.6947 13.6766 34.5225 13.5898H34.5215C31.3771 12.0143 27.8783 11.2629 24.3301 10.9463Z" stroke="#00D8FF"/>
<path d="M8.57492 32.6372C8.85859 33.4441 9.46459 34.273 10.3298 34.6694C10.2158 34.6248 10.1045 34.5751 9.99875 34.5142C9.29075 34.1063 8.84725 33.4439 8.57492 32.6372ZM8.50363 32.4116C8.49844 32.3937 8.49207 32.3759 8.48703 32.3579C8.48486 32.3502 8.48331 32.3422 8.48117 32.3345C8.48859 32.3602 8.49586 32.3859 8.50363 32.4116ZM19.7087 30.1548C19.4516 30.4216 19.1898 30.6812 18.9236 30.9331C18.9839 30.8751 19.0445 30.8175 19.1042 30.7593C19.3085 30.5604 19.5099 30.3588 19.7087 30.1548ZM10.2605 20.2495C9.67049 21.7923 9.1767 23.3655 8.79269 24.9575C9.15009 23.3627 9.64822 21.7913 10.2605 20.2495ZM21.153 4.36182C20.7885 4.68852 20.4331 5.02329 20.0876 5.35791C20.0084 5.43459 19.9299 5.51197 19.8513 5.58936C20.274 5.16029 20.7082 4.74983 21.153 4.36182Z" stroke="#00D8FF"/>
<path d="M23.3289 33.3687C23.7243 33.6124 24.129 33.841 24.5447 34.0513C24.9467 34.2545 25.3838 34.4478 25.8328 34.603C25.1443 34.3921 24.4618 34.0697 23.7869 33.6606C23.6334 33.5676 23.4809 33.4696 23.3289 33.3687ZM30.077 23.731C30.8314 26.0662 31.2567 28.4368 30.9168 30.7427C30.918 30.7276 30.9205 30.7127 30.9217 30.6978L30.9578 30.147C30.9684 29.9497 30.9737 29.7523 30.9754 29.5552L30.9686 28.9653C30.9534 28.4737 30.9148 27.9841 30.8572 27.4985C30.7063 26.2207 30.4347 24.9655 30.077 23.731ZM10.2947 15.8823C11.2646 18.2261 12.4887 20.4937 13.8074 22.6577C14.5637 23.8986 15.3698 25.1443 16.2361 26.3491C13.7567 23.166 11.7228 19.6221 10.2947 15.8823ZM24.8836 12.7534C25.2942 13.4124 25.6906 14.0819 26.0701 14.7622L25.5359 13.8384C25.3231 13.4757 25.1048 13.1144 24.8836 12.7534ZM9.60626 1.92432C9.3864 2.13427 9.1973 2.3743 9.03888 2.62744C8.84954 2.93006 8.69662 3.25991 8.57501 3.59424C8.78276 2.93796 9.12842 2.34972 9.60626 1.92432ZM13.5057 1.60889C14.3522 1.89827 15.1761 2.34142 15.9813 2.88525C15.5957 2.64149 15.2016 2.41045 14.7967 2.19678C14.3887 1.98156 13.956 1.77783 13.5057 1.60889Z" stroke="#00D8FF"/>
</svg>
