<svg width="53" height="52" viewBox="0 0 53 52" fill="none" xmlns="http://www.w3.org/2000/svg">
<path d="M26.4997 3.74463C29.3726 3.74463 32.217 4.32165 34.863 5.44092C37.5087 6.56018 39.9033 8.19871 41.904 10.2603V10.2612C46.0056 14.4717 48.296 20.1205 48.2849 25.9985V26.0054C48.3445 31.8445 46.0831 37.4686 41.9968 41.6401C37.9115 45.8106 32.3372 48.1865 26.4997 48.2485C20.6625 48.1863 15.0887 45.8103 11.0036 41.6401C6.9173 37.4686 4.65492 31.8445 4.71454 26.0054V25.9985C4.70343 20.1206 6.99384 14.4717 11.0954 10.2612L11.0964 10.2603C13.0971 8.19872 15.4916 6.56015 18.1374 5.44092C20.7832 4.32169 23.6269 3.74467 26.4997 3.74463Z" stroke="#CE3F31"/>
<path d="M14.7629 26.4824C15.1304 26.5836 15.4741 26.7568 15.7747 26.9912C16.0686 27.2205 16.315 27.5044 16.5012 27.8271C16.9909 28.9268 17.2066 30.1287 17.1282 31.3301V31.332C17.0514 32.5616 17.1497 33.7959 17.4192 34.998L17.429 35.0439L17.4475 35.0869C17.7447 35.7776 18.4764 36.0116 19.2874 36.0342V36.8994H19.1292C18.6025 36.9081 18.0766 36.852 17.5637 36.7324C17.1718 36.621 16.8302 36.3775 16.5989 36.042L16.595 36.0352L16.5911 36.0293L16.4797 35.8682C16.2347 35.4853 16.0775 35.0521 16.0198 34.5996C15.9149 33.6901 15.869 32.7748 15.8831 31.8594C15.9006 30.9218 15.8565 29.9835 15.7502 29.0518L15.7493 29.0469L15.7102 28.8047C15.5985 28.2455 15.3466 27.7218 14.9768 27.2842L14.9641 27.2695L14.9504 27.2559C14.684 26.9863 14.3632 26.7766 14.009 26.6416C13.8212 26.57 13.6259 26.5206 13.428 26.4932V26.1143L14.7629 26.4824ZM39.4553 26.4863C39.2572 26.5138 39.0622 26.5632 38.8743 26.6348C38.5199 26.7698 38.1985 26.9793 37.9319 27.249L37.9182 27.2637L37.9055 27.2783C37.483 27.7784 37.2144 28.3904 37.1331 29.04V29.0459C37.0534 29.7449 37.0084 30.4472 36.9983 31.1504L36.9993 31.8535C37.0146 32.7708 36.9696 33.6881 36.8655 34.5996C36.7992 35.1164 36.6034 35.6082 36.2952 36.0283L36.2913 36.0342L36.2864 36.04C36.0564 36.3734 35.7182 36.6162 35.3293 36.7285C34.8142 36.8492 34.2861 36.9072 33.7571 36.8984H33.5989V36.041C34.4103 36.0185 35.1428 35.7839 35.4387 35.0918L35.4563 35.0508L35.467 35.0068C35.7428 33.8033 35.8455 32.5666 35.7737 31.334V31.3301L35.7581 30.876C35.753 29.8272 35.9705 28.7876 36.3977 27.8262C36.7767 27.1684 37.3991 26.6858 38.1311 26.4824L39.4553 26.1143V26.4863ZM26.5295 19.5049C27.8292 19.5049 28.8666 19.741 29.5676 20.2402C30.2375 20.7175 30.6682 21.4843 30.6682 22.7324V22.7451L30.6692 22.7578C30.7076 23.5191 30.468 24.2682 29.9954 24.8662C29.5226 25.4643 28.8486 25.8704 28.0989 26.0088L27.3997 26.1377L27.7581 26.752L30.6956 31.7959H29.9319L26.8743 26.4346L26.7307 26.1826H23.5686V31.7959H22.887L22.8948 19.5049H26.5295ZM19.1252 15.0928H19.2834V15.9492C18.4723 15.9719 17.7394 16.2065 17.4436 16.8984L17.426 16.9414L17.4163 16.9863C17.1468 18.1885 17.0485 19.4227 17.1252 20.6523V20.6543C17.2045 21.8537 16.9903 23.0538 16.5032 24.1523C16.1219 24.8179 15.4971 25.3093 14.759 25.5195L13.428 25.8984V25.5039C13.6259 25.4765 13.8212 25.427 14.009 25.3555C14.3632 25.2204 14.684 25.0108 14.9504 24.7412L14.9641 24.7275L14.9768 24.7129C15.3995 24.2127 15.6679 23.6 15.7493 22.9502L15.7502 22.9453C15.8299 22.2464 15.8749 21.5439 15.885 20.8408L15.8831 20.1377C15.8677 19.2202 15.9127 18.3023 16.0168 17.3906L16.0159 17.3896C16.0822 16.8735 16.2793 16.3826 16.5872 15.9629L16.592 15.957L16.5959 15.9512C16.8273 15.6157 17.168 15.3703 17.5598 15.2588C18.0727 15.1392 18.5986 15.0841 19.1252 15.0928ZM33.7571 15.0977C34.2833 15.089 34.809 15.1443 35.3215 15.2637C35.7139 15.3749 36.0548 15.6202 36.2864 15.9561L36.2913 15.9619L36.2952 15.9678C36.6032 16.3875 36.8001 16.8783 36.8665 17.3945V17.3955C36.9706 18.3072 37.0147 19.225 36.9993 20.1426C36.9817 21.0803 37.0268 22.0184 37.1331 22.9502V22.9551C37.2144 23.6048 37.4829 24.2176 37.9055 24.7178L37.9182 24.7324L37.9319 24.7461C38.1984 25.0158 38.5199 25.2253 38.8743 25.3604C39.0622 25.432 39.2573 25.4814 39.4553 25.5088V25.8945L38.1331 25.5195C37.3945 25.3096 36.7685 24.8182 36.387 24.1523C35.9 23.0539 35.6866 21.8535 35.7659 20.6543V20.6523C35.8426 19.4227 35.7443 18.1885 35.4749 16.9863L35.4651 16.9404L35.4465 16.8975C35.1491 16.2061 34.4166 15.9714 33.6047 15.9492L33.6008 15.0977H33.7571ZM23.5686 25.8086L24.0696 25.8076L26.2786 25.8047L26.2776 25.8037C27.3634 25.8037 28.2933 25.589 28.9602 25.0664C29.6494 24.5261 29.9787 23.7215 29.9788 22.7324C29.9788 21.74 29.647 20.9719 28.9377 20.4814C28.2685 20.0186 27.3416 19.8614 26.2776 19.8613H23.5686V25.8086Z" fill="white" stroke="#CE3F31"/>
</svg>
