<svg width="53" height="12" viewBox="0 0 53 12" fill="none" xmlns="http://www.w3.org/2000/svg">
<path d="M39.1425 4.53809V10.96H37.2206V3.60352L39.1425 4.53809Z" fill="#E5E5E5" stroke="#F04939" stroke-width="0.2"/>
<path d="M17.3857 7.68359L10.8252 11.1016L9.39941 9.86035L16.7705 6.20312L17.3857 7.68359ZM42.373 2.75488L37.2207 5.42969V3.50488L41.5596 1.35059L42.373 2.75488Z" fill="#D3D3D3" stroke="#F04939" stroke-width="0.2"/>
<path d="M13.7686 3.56104L10.7705 11.0542L9.33984 9.80908L12.8838 1.2124L13.7686 3.56104ZM21.8486 3.98975V10.9604H20.0156V1.26807L21.8486 3.98975Z" fill="#E5E5E5" stroke="#F04939" stroke-width="0.2"/>
<path d="M32.5576 1.03955V10.9604H30.6514V1.03955H32.5576ZM14.9111 1.03955L18.71 10.9604H16.7734L13.0332 1.03955H14.9111ZM22.2031 1.03955L26.6211 7.87842V10.7319L20.1025 1.03955H22.2031ZM41.3799 1.03955L42.3389 2.6958H33.9805V1.03955H41.3799Z" fill="#E5E5E5" stroke="#F04939" stroke-width="0.2"/>
<mask id="path-5-inside-1_918_1720" fill="white">
<path d="M48.7436 7.21533V11.0601H46.6519V7.21533"/>
</mask>
<path d="M48.7436 7.21533V11.0601H46.6519V7.21533" fill="#D3D3D3"/>
<path d="M48.7436 11.0601V11.2601H48.9436V11.0601H48.7436ZM46.6519 11.0601H46.4519V11.2601H46.6519V11.0601ZM48.7436 7.21533H48.5436V11.0601H48.7436H48.9436V7.21533H48.7436ZM48.7436 11.0601V10.8601H46.6519V11.0601V11.2601H48.7436V11.0601ZM46.6519 11.0601H46.8519V7.21533H46.6519H46.4519V11.0601H46.6519Z" fill="#F04939" mask="url(#path-5-inside-1_918_1720)"/>
<path d="M52.2378 1.03955L48.686 7.11572H46.8228L50.2456 1.03955H52.2378Z" fill="#E5E5E5" stroke="#F04939" stroke-width="0.2"/>
<path d="M45.2379 1.03955L47.6412 5.2417L46.65 7.01318L43.1724 1.03955H45.2379Z" fill="#E5E5E5" stroke="#F04939" stroke-width="0.2"/>
<path d="M1.28479 2.42188C1.34046 3.00692 1.56026 3.49311 1.94983 3.8877C2.40217 4.34579 3.07348 4.67319 3.95178 4.89648H3.95374L5.79553 5.32422C6.608 5.51288 7.25091 5.83708 7.69006 6.29395C8.12737 6.74891 8.36971 7.34185 8.36975 8.08398V8.08594C8.38171 8.62428 8.23022 9.1529 7.95276 9.61328C7.90372 8.97497 7.698 8.45835 7.30237 8.04102C6.84736 7.5612 6.15247 7.22307 5.19495 6.9707H5.19202L3.38049 6.55762H3.37952C2.66014 6.39775 2.03543 6.12742 1.59143 5.70117C1.15039 5.2777 0.879517 4.69297 0.879517 3.88574C0.87954 3.37187 1.02147 2.85898 1.28479 2.42188Z" fill="#E5E5E5" stroke="#F04939" stroke-width="0.2"/>
<path d="M28.6536 1.03955V10.9604H26.8206V1.03955H28.6536Z" fill="#E5E5E5" stroke="#F04939" stroke-width="0.2"/>
<path d="M6.8205 7.8833C7.12418 8.1046 7.34851 8.36284 7.50214 8.66553C7.67501 9.00622 7.76079 9.40927 7.76483 9.89014C7.12318 10.6821 6.03267 11.1216 4.72772 11.1216C3.6169 11.1216 2.67385 10.8457 1.96893 10.3394C1.29505 9.85527 0.834279 9.15696 0.65155 8.27295H2.62518C2.77616 8.70068 3.03404 9.02254 3.38104 9.23779C3.74524 9.46354 4.19938 9.56885 4.71307 9.56885V9.56787C5.32665 9.57522 5.85254 9.41346 6.2287 9.09229C6.5675 8.8029 6.77519 8.3917 6.8205 7.8833ZM4.41815 0.877441C5.55673 0.877441 6.44411 1.17825 7.08612 1.68115C7.69673 2.15951 8.09031 2.82702 8.26971 3.60889H6.37225C6.24573 3.28095 6.0399 2.98629 5.73749 2.77002C5.41411 2.53883 4.98768 2.40088 4.44745 2.40088H4.44647C3.86101 2.4085 3.36133 2.57989 3.00116 2.89111C2.67711 3.17114 2.47277 3.55964 2.41718 4.02686C1.79035 3.61537 1.45281 2.89639 1.46893 2.13916C2.08266 1.35887 3.13109 0.877511 4.41815 0.877441Z" fill="#E5E5E5" stroke="#F04939" stroke-width="0.2"/>
</svg>
