<svg width="53" height="52" viewBox="0 0 53 52" fill="none" xmlns="http://www.w3.org/2000/svg">
<path d="M26.5326 4.77051C29.3618 4.76968 32.1622 5.33749 34.7679 6.43945C37.3737 7.54147 39.7324 9.155 41.7025 11.1855L41.9955 11.4883C39.3514 14.7022 35.1853 17.1023 31.4672 17.9863C29.278 18.5075 27.2188 18.5548 25.1263 18.6699C23.0485 18.7843 20.9518 18.9667 18.7982 19.7939C13.884 21.6825 11.4433 25.5748 10.9261 29.3369C10.4154 33.0537 11.7838 36.7739 14.6547 38.1709C14.7543 38.2255 14.8543 38.2793 14.9554 38.3311L15.0629 38.3867H15.184C15.2267 38.3849 15.2719 38.3785 15.2748 38.3779L15.2777 38.377H15.2806C15.2821 38.3767 15.2845 38.3764 15.2865 38.376C15.2905 38.3752 15.296 38.3735 15.3031 38.3721C15.3181 38.3691 15.3407 38.3652 15.3695 38.3594C15.4274 38.3477 15.5129 38.3301 15.6224 38.3076C15.8415 38.2628 16.1586 38.197 16.5521 38.1133C17.3397 37.9457 18.4344 37.7059 19.6615 37.417C22.1089 36.8408 25.1094 36.0641 27.2582 35.2705V35.2695C31.6242 33.6558 36.3018 30.4014 39.5238 26.3115C37.0708 30.555 33.1347 34.2259 29.1752 36.2539C27.6489 37.0376 26.2904 37.5186 24.6605 38.0273C23.2363 38.4719 21.5936 38.9411 19.476 39.6494L18.5385 39.9688C18.215 40.081 17.9271 40.1907 17.7201 40.2725C17.6165 40.3134 17.5321 40.3472 17.474 40.3711C17.4451 40.383 17.4222 40.3929 17.4066 40.3994C17.399 40.4026 17.3932 40.4055 17.389 40.4072C17.387 40.4081 17.3853 40.4087 17.3842 40.4092H17.3822V40.4102L17.6586 41.3633C18.2951 41.2586 18.9336 41.1882 19.4144 41.1436C19.6541 41.1213 19.8534 41.1058 19.9926 41.0957C20.0621 41.0907 20.1169 41.0863 20.1537 41.084C20.1717 41.0828 20.1855 41.0826 20.1947 41.082C20.1993 41.0818 20.2032 41.0812 20.2054 41.0811L20.2074 41.0801C22.0132 40.9954 24.0738 41.0805 26.2679 41.1465C28.4529 41.2122 30.7585 41.2593 33.0072 41.0908C37.4945 40.7547 41.8711 39.5542 44.6771 35.8164C46.3072 33.6455 47.1953 31.1009 47.5795 28.4102C46.3662 38.9488 37.3923 47.167 26.5326 47.167H26.5316C22.1084 47.1711 17.8118 45.7828 14.2386 43.2236C14.6106 43.1128 14.9535 42.9113 15.2328 42.6318C15.6738 42.1903 15.9213 41.5918 15.9213 40.9678C15.9211 40.3434 15.6733 39.7442 15.2318 39.3027C14.7903 38.8613 14.1911 38.6134 13.5668 38.6133C12.9428 38.6133 12.3442 38.8608 11.9027 39.3018C11.5418 39.6624 11.3125 40.1289 11.2396 40.6279C9.50741 38.8279 8.10487 36.7335 7.10193 34.4385C5.93452 31.767 5.33201 28.8832 5.33337 25.9678C5.33337 14.4624 14.5471 5.06833 25.9857 4.77734L26.5326 4.77051Z" stroke="#15803D"/>
</svg>
