<svg width="53" height="52" viewBox="0 0 53 52" fill="none" xmlns="http://www.w3.org/2000/svg">
<g clip-path="url(#clip0_918_1712)">
<path d="M51.2544 0.90625C51.4098 0.90625 51.5587 0.968171 51.6685 1.07812C51.7782 1.18803 51.8396 1.33691 51.8394 1.49219V34.7119H35.479V18.627C35.4788 17.7519 34.7691 17.042 33.894 17.042H17.5776V0.90625H51.2544Z" stroke="#8E75FF"/>
<path opacity="0.405" d="M51.1211 35.7119L35.5527 51.0771L35.5469 51.082C35.5348 51.0904 35.5197 51.0937 35.5059 51.0879C35.4979 51.0845 35.4909 51.0791 35.4863 51.0723L35.4795 51.0479V35.7119H51.1211ZM16.5752 17.042H1.04395C1.02637 17.042 1.00967 17.0318 1.00293 17.0156C0.996271 16.9994 1.00026 16.9802 1.0127 16.9678L16.5752 1.60156V17.042Z" stroke="#8E75FF"/>
<path opacity="0.405" d="M34.4379 18.0425C34.4605 18.0426 34.4789 18.0623 34.4789 18.0845V34.7124H18.1625C17.8396 34.7123 17.5778 34.4503 17.5776 34.1274V18.0425H34.4379Z" stroke="#8E75FF"/>
</g>
<defs>
<clipPath id="clip0_918_1712">
<rect width="52" height="52" fill="white" transform="translate(0.5)"/>
</clipPath>
</defs>
</svg>
