<svg width="53" height="52" viewBox="0 0 53 52" fill="none" xmlns="http://www.w3.org/2000/svg">
<path d="M15.6664 26.5C18.2668 26.5 20.138 27.0991 21.6117 27.9424C22.7255 28.5798 23.6241 29.3627 24.4544 30.168L25.2679 30.9766C26.5484 32.2698 27.8232 33.5743 29.6312 34.0234C31.1713 34.4059 32.6378 34.313 34.0101 33.7285C34.7574 33.4102 35.4654 32.9487 36.138 32.3545C35.4263 34.0696 34.4558 35.4043 33.2328 36.377C31.5363 37.726 29.3076 38.4219 26.5023 38.4219C23.9007 38.4219 22.0293 37.8227 20.556 36.9795C19.4425 36.3422 18.5442 35.5601 17.7152 34.7549L16.9037 33.9463C15.621 32.653 14.3457 31.3486 12.5374 30.8994C10.9974 30.517 9.53099 30.609 8.15854 31.1934C7.41168 31.5114 6.70288 31.9706 6.03061 32.5645C6.74221 30.8507 7.7135 29.5171 8.93588 28.5449C10.6323 27.1959 12.8611 26.5001 15.6664 26.5ZM26.5003 13.5781C29.1019 13.5782 30.973 14.1766 32.4456 15.0195C33.5586 15.6566 34.4558 16.4396 35.2845 17.2451L36.096 18.0537C37.3788 19.3471 38.6548 20.6524 40.4632 21.1016C42.0042 21.4838 43.4702 21.3911 44.8421 20.8066C45.5893 20.4883 46.2976 20.0269 46.9701 19.4326C46.2583 21.1479 45.2869 22.4824 44.0638 23.4551C42.3673 24.8042 40.1387 25.5 37.3333 25.5C34.733 25.5 32.8623 24.9008 31.389 24.0576C30.2756 23.4204 29.3768 22.6381 28.5472 21.833L27.7347 21.0244C26.4539 19.7309 25.1789 18.4257 23.3705 17.9766C21.8303 17.5942 20.3639 17.6879 18.9915 18.2725C18.2443 18.5908 17.5352 19.0503 16.8626 19.6445C17.5744 17.9296 18.5468 16.5956 19.7699 15.623C21.4663 14.274 23.695 13.5781 26.5003 13.5781Z" stroke="#38BDF8"/>
</svg>
